<svg width="50" height="47" viewBox="0 0 50 47" fill="none" xmlns="http://www.w3.org/2000/svg"><path fill-rule="evenodd" clip-rule="evenodd" d="M23.843 42.31v3.724H49L24.99 2 1 46.034h20.53v-.49H1.796L24.99 2.98l23.195 42.564h-23.89v-3.205l-.453-.03zm-7.17-9.213c1.453 4.587 5.986 7.223 10.427 6.067 4.432-1.167 7.29-5.734 6.56-10.507-.73-4.772-4.802-8.163-9.354-7.781v16.318a7.522 7.522 0 01-.463-.069v-16.7c4.83-.647 9.308 2.793 10.224 7.86.916 5.067-2.026 10.016-6.745 11.32-4.709 1.303-9.566-1.5-11.093-6.39-1.527-4.9.796-10.212 5.302-12.143v.53c-4.201 1.9-6.31 6.909-4.858 11.495z" fill="#fff" stroke="#fff" stroke-miterlimit="10"/></svg>