<svg width="22" height="25" viewBox="0 0 22 25" fill="none" xmlns="http://www.w3.org/2000/svg"><mask id="path-1-inside-1" fill="#fff"><path fill-rule="evenodd" clip-rule="evenodd" d="M4.219 6.395C4.219 2.87 7.058 0 10.547 0c3.49 0 6.328 2.869 6.328 6.395 0 3.526-2.839 6.395-6.328 6.395-3.49 0-6.328-2.869-6.328-6.395zm7.734 7.816c2.438 0 4.735.98 6.467 2.757a9.37 9.37 0 012.674 6.575c0 .393-.315.71-.703.71H.703a.707.707 0 01-.703-.71 9.37 9.37 0 012.673-6.575c1.733-1.778 4.03-2.757 6.468-2.757h2.812z"/></mask><path d="M18.42 16.968l-1.432 1.396 1.432-1.396zm-15.747 0l1.433 1.396-1.433-1.396zM10.547-2C5.933-2 2.219 1.784 2.219 6.395h4C6.219 3.954 8.182 2 10.547 2v-4zm8.328 8.395c0-4.61-3.714-8.395-8.328-8.395v4c2.365 0 4.328 1.954 4.328 4.395h4zm-8.328 8.395c4.614 0 8.328-3.784 8.328-8.395h-4c0 2.442-1.963 4.395-4.328 4.395v4zM2.219 6.395c0 4.611 3.714 8.395 8.328 8.395v-4c-2.365 0-4.328-1.953-4.328-4.395h-4zm17.634 9.177c-2.102-2.156-4.912-3.36-7.9-3.36v4c1.888 0 3.671.753 5.035 2.152l2.865-2.792zm3.24 7.971a11.37 11.37 0 00-3.24-7.97l-2.865 2.79a7.371 7.371 0 012.106 5.18h4zm-2.702 2.71a2.707 2.707 0 002.703-2.71h-4c0-.692.56-1.29 1.297-1.29v4zm-19.688 0h19.688v-4H.703v4zM-2 23.544c0 1.477 1.19 2.71 2.703 2.71v-4c.736 0 1.297.598 1.297 1.29h-4zm3.241-7.97A11.37 11.37 0 00-2 23.542h4a7.37 7.37 0 012.106-5.18l-2.865-2.79zm7.9-3.362c-2.989 0-5.799 1.205-7.9 3.361l2.865 2.792c1.364-1.4 3.147-2.153 5.035-2.153v-4zm2.812 0H9.141v4h2.812v-4z" fill="#E5E5E5" mask="url(#path-1-inside-1)"/></svg>