<svg width="26" height="27" viewBox="0 0 26 27" fill="none" xmlns="http://www.w3.org/2000/svg">
<path d="M23.9152 3.03064e-08H1.39602C0.624933 0.000490617 -0.000154467 0.662453 2.86323e-08 1.47895V25.3148C0.000463516 26.131 0.62586 26.7926 1.39725 26.7925H13.5214V16.4313H10.2338V12.3758H13.5214V9.39127C13.5214 5.93019 15.5177 4.04634 18.4345 4.04634C19.8316 4.04634 21.0322 4.15656 21.3821 4.20578V7.82319H19.3708C17.7838 7.82319 17.4765 8.62138 17.4765 9.79289V12.3758H21.2709L20.7765 16.4313H17.4765V26.7925H23.9152C24.6868 26.7926 25.3123 26.1308 25.3125 25.3142C25.3125 25.314 25.3125 25.3139 25.3125 25.3135V1.47764C25.3122 0.661472 24.6866 -0.000163498 23.9152 3.03064e-08Z" fill="#605F6C"/>
</svg>
