<svg width="26" height="27" viewBox="0 0 26 27" fill="none" xmlns="http://www.w3.org/2000/svg"><path d="M3.379.18H21.96c1.765 0 3.209 1.382 3.209 3.395v19.67c0 2.013-1.444 3.396-3.209 3.396H3.38c-1.765 0-3.21-1.383-3.21-3.396V3.575C.17 1.562 1.615.18 3.38.18zM18.38 3.12c-.619 0-1.125.535-1.125 1.19v2.852c0 .655.506 1.191 1.125 1.191h2.826c.62 0 1.125-.536 1.125-1.19V4.31c0-.656-.506-1.192-1.125-1.192H18.38zm3.963 8.25h-2.2c.208.72.32 1.481.32 2.27 0 4.401-3.479 7.97-7.77 7.97-4.292 0-7.77-3.569-7.77-7.97 0-.79.112-1.551.32-2.27H2.948v11.178c0 .578.447 1.052.994 1.052H21.35c.547 0 .994-.474.994-1.052V11.37zm-9.65-3.167c-2.773 0-5.021 2.306-5.021 5.15 0 2.844 2.248 5.15 5.02 5.15 2.773 0 5.022-2.306 5.022-5.15 0-2.844-2.248-5.15-5.022-5.15z" fill="#605F6C"/></svg>