<svg width="22" height="28" viewBox="0 0 22 28" fill="none" xmlns="http://www.w3.org/2000/svg"><path d="M11.184 0C3.749 0 0 5.33 0 9.776c0 2.69 1.019 5.085 3.204 5.978.359.146.68.005.784-.392.072-.275.243-.967.32-1.256.104-.392.063-.53-.226-.872-.63-.743-1.032-1.705-1.032-3.069 0-3.954 2.958-7.494 7.705-7.494 4.201 0 6.51 2.568 6.51 5.997 0 4.512-1.997 8.32-4.96 8.32-1.638 0-2.863-1.354-2.47-3.015.47-1.982 1.38-4.122 1.38-5.552 0-1.281-.686-2.35-2.11-2.35-1.673 0-3.017 1.731-3.017 4.05 0 1.478.499 2.477.499 2.477l-2.013 8.527c-.598 2.53-.09 5.633-.046 5.946.024.186.263.23.371.09.155-.202 2.148-2.662 2.825-5.121.192-.696 1.1-4.301 1.1-4.301.544 1.037 2.133 1.95 3.823 1.95 5.03 0 8.444-4.586 8.444-10.725C21.09 4.323 17.159 0 11.184 0z" fill="#605F6C"/></svg>