<svg width="35" height="22" viewBox="0 0 35 22" fill="none" xmlns="http://www.w3.org/2000/svg"><path d="M33.867 19.236c-.091-.167-.657-1.507-3.377-4.262-2.848-2.885-2.465-2.416.965-7.404 2.089-3.038 2.924-4.894 2.663-5.687-.249-.756-1.785-.556-1.785-.556l-5.11.032s-.378-.055-.66.128c-.274.18-.45.598-.45.598s-.81 2.352-1.89 4.35c-2.276 4.219-3.188 4.441-3.56 4.18-.865-.61-.648-2.454-.648-3.762 0-4.088.567-5.793-1.107-6.233-.557-.147-.965-.244-2.387-.26-1.823-.021-3.368.007-4.242.473-.582.31-1.03 1.004-.756 1.043.338.05 1.103.225 1.509.828.525.777.506 2.526.506 2.526s.301 4.812-.704 5.41c-.69.41-1.636-.427-3.666-4.255-1.039-1.96-1.825-4.128-1.825-4.128s-.151-.404-.421-.62c-.327-.261-.786-.345-.786-.345l-4.858.033s-.73.023-.997.368c-.238.309-.02.944-.02.944s3.805 9.71 8.11 14.605c3.951 4.487 8.435 4.193 8.435 4.193h2.032s.614-.075.926-.443c.29-.339.279-.974.279-.974s-.04-2.975 1.226-3.414c1.247-.431 2.85 2.876 4.548 4.149 1.283.962 2.259.751 2.259.751l4.541-.07s2.376-.16 1.25-2.198z" fill="#605F6C"/></svg>