<svg width="27" height="27" viewBox="0 0 27 27" fill="none" xmlns="http://www.w3.org/2000/svg"><g clip-path="url(#clip0)" fill-rule="evenodd" clip-rule="evenodd"><path d="M13.351 0c-5.564 0-9.42.019-11.4 1.952C.02 3.93.002 7.967.002 13.35c5.977-.18 8.71-.33 10.891-2.46 2.129-2.18 2.279-4.913 2.46-10.891zm-11.4 25.048C.02 23.07 0 19.033 0 13.65c5.978.18 8.711.33 10.892 2.46 2.129 2.18 2.278 4.913 2.459 10.89-5.565 0-9.42-.017-11.4-1.95zM13.65 27c.18-5.978.33-8.711 2.46-10.892 2.18-2.129 4.913-2.278 10.89-2.459 0 5.384-.018 9.42-1.95 11.4-1.98 1.933-5.835 1.95-11.4 1.95zm0-27c.18 5.978.33 8.712 2.46 10.892 2.18 2.129 4.913 2.279 10.89 2.459 0-5.384-.018-9.42-1.95-11.4C23.068.02 19.213.002 13.648 0z" fill="#605F6C"/><path d="M27 13.65v-.298c-5.978-.181-8.712-.33-10.892-2.46C13.98 8.712 13.83 5.98 13.65.001h-.298c-.18 5.978-.33 8.712-2.46 10.891-2.18 2.13-4.913 2.279-10.891 2.46v.298c5.978.18 8.711.33 10.892 2.459C13.02 18.289 13.17 21.023 13.35 27h.299c.18-5.978.33-8.712 2.458-10.892 2.18-2.13 4.914-2.278 10.892-2.46z" fill="#3E3E3E"/></g><defs><clipPath id="clip0"><path fill="#fff" d="M0 0h27v27H0z"/></clipPath></defs></svg>