<?xml version="1.0" encoding="utf-8"?><svg viewBox="0 0 50 47" xmlns="http://www.w3.org/2000/svg" xmlns:xlink="http://www.w3.org/1999/xlink"><style>:root>svg{display:none}:root>svg:target{display:block}</style><svg fill="none" viewBox="0 0 35 16" id="arrow-right" xmlns="http://www.w3.org/2000/svg"><path d="M34.707 8.707a1 1 0 000-1.414L28.343.929a1 1 0 10-1.414 1.414L32.586 8l-5.657 5.657a1 1 0 001.414 1.414l6.364-6.364zM0 9h34V7H0v2z" fill="#000"/></svg><svg fill="none" viewBox="0 0 21 12" id="arrow-right-gold" xmlns="http://www.w3.org/2000/svg"><path d="M20.53 6.53a.75.75 0 000-1.06L15.757.697a.75.75 0 00-1.06 1.06L18.939 6l-4.242 4.243a.75.75 0 001.06 1.06L20.53 6.53zM0 6.75h20v-1.5H0v1.5z" fill="#E6C783"/></svg><svg fill="none" viewBox="0 0 50 47" id="logo" xmlns="http://www.w3.org/2000/svg"><path fill-rule="evenodd" clip-rule="evenodd" d="M23.843 42.31v3.724H49L24.99 2 1 46.034h20.53v-.49H1.796L24.99 2.98l23.195 42.564h-23.89v-3.205l-.453-.03zm-7.17-9.213c1.453 4.587 5.986 7.223 10.427 6.067 4.432-1.167 7.29-5.734 6.56-10.507-.73-4.772-4.802-8.163-9.354-7.781v16.318a7.522 7.522 0 01-.463-.069v-16.7c4.83-.647 9.308 2.793 10.224 7.86.916 5.067-2.026 10.016-6.745 11.32-4.709 1.303-9.566-1.5-11.093-6.39-1.527-4.9.796-10.212 5.302-12.143v.53c-4.201 1.9-6.31 6.909-4.858 11.495z" fill="#fff" stroke="#fff" stroke-miterlimit="10"/></svg><svg fill="none" viewBox="0 0 22 25" id="personal-area" xmlns="http://www.w3.org/2000/svg"><mask id="da" fill="#fff"><path fill-rule="evenodd" clip-rule="evenodd" d="M4.219 6.395C4.219 2.87 7.058 0 10.547 0c3.49 0 6.328 2.869 6.328 6.395 0 3.526-2.839 6.395-6.328 6.395-3.49 0-6.328-2.869-6.328-6.395zm7.734 7.816c2.438 0 4.735.98 6.467 2.757a9.37 9.37 0 012.674 6.575c0 .393-.315.71-.703.71H.703a.707.707 0 01-.703-.71 9.37 9.37 0 012.673-6.575c1.733-1.778 4.03-2.757 6.468-2.757h2.812z"/></mask><path d="M18.42 16.968l-1.432 1.396 1.432-1.396zm-15.747 0l1.433 1.396-1.433-1.396zM10.547-2C5.933-2 2.219 1.784 2.219 6.395h4C6.219 3.954 8.182 2 10.547 2v-4zm8.328 8.395c0-4.61-3.714-8.395-8.328-8.395v4c2.365 0 4.328 1.954 4.328 4.395h4zm-8.328 8.395c4.614 0 8.328-3.784 8.328-8.395h-4c0 2.442-1.963 4.395-4.328 4.395v4zM2.219 6.395c0 4.611 3.714 8.395 8.328 8.395v-4c-2.365 0-4.328-1.953-4.328-4.395h-4zm17.634 9.177c-2.102-2.156-4.912-3.36-7.9-3.36v4c1.888 0 3.671.753 5.035 2.152l2.865-2.792zm3.24 7.971a11.37 11.37 0 00-3.24-7.97l-2.865 2.79a7.371 7.371 0 012.106 5.18h4zm-2.702 2.71a2.707 2.707 0 002.703-2.71h-4c0-.692.56-1.29 1.297-1.29v4zm-19.688 0h19.688v-4H.703v4zM-2 23.544c0 1.477 1.19 2.71 2.703 2.71v-4c.736 0 1.297.598 1.297 1.29h-4zm3.241-7.97A11.37 11.37 0 00-2 23.542h4a7.37 7.37 0 012.106-5.18l-2.865-2.79zm7.9-3.362c-2.989 0-5.799 1.205-7.9 3.361l2.865 2.792c1.364-1.4 3.147-2.153 5.035-2.153v-4zm2.812 0H9.141v4h2.812v-4z" fill="#E5E5E5" mask="url(#da)"/></svg><svg fill="none" viewBox="0 0 30 35" id="play-btn" xmlns="http://www.w3.org/2000/svg"><path d="M30 17.5L0 34.388V.613L30 17.5z" fill="#E6C783"/></svg></svg>