<?xml version="1.0" encoding="utf-8"?><svg viewBox="0 0 79 47" xmlns="http://www.w3.org/2000/svg" xmlns:xlink="http://www.w3.org/1999/xlink"><style>:root>svg{display:none}:root>svg:target{display:block}</style><svg fill="none" viewBox="0 0 35 16" id="arrow-right" xmlns="http://www.w3.org/2000/svg"><path d="M34.707 8.707a1 1 0 000-1.414L28.343.929a1 1 0 10-1.414 1.414L32.586 8l-5.657 5.657a1 1 0 001.414 1.414l6.364-6.364zM0 9h34V7H0v2z" fill="#000"/></svg><svg fill="none" viewBox="0 0 21 12" id="arrow-right-gold" xmlns="http://www.w3.org/2000/svg"><path d="M20.53 6.53a.75.75 0 000-1.06L15.757.697a.75.75 0 00-1.06 1.06L18.939 6l-4.242 4.243a.75.75 0 001.06 1.06L20.53 6.53zM0 6.75h20v-1.5H0v1.5z" fill="#E6C783"/></svg><svg fill="none" viewBox="0 0 50 47" id="logo" xmlns="http://www.w3.org/2000/svg"><path fill-rule="evenodd" clip-rule="evenodd" d="M23.843 42.31v3.724H49L24.99 2 1 46.034h20.53v-.49H1.796L24.99 2.98l23.195 42.564h-23.89v-3.205l-.453-.03zm-7.17-9.213c1.453 4.587 5.986 7.223 10.427 6.067 4.432-1.167 7.29-5.734 6.56-10.507-.73-4.772-4.802-8.163-9.354-7.781v16.318a7.522 7.522 0 01-.463-.069v-16.7c4.83-.647 9.308 2.793 10.224 7.86.916 5.067-2.026 10.016-6.745 11.32-4.709 1.303-9.566-1.5-11.093-6.39-1.527-4.9.796-10.212 5.302-12.143v.53c-4.201 1.9-6.31 6.909-4.858 11.495z" fill="#fff" stroke="#fff" stroke-miterlimit="10"/></svg><svg fill="none" viewBox="0 0 22 25" id="personal-area" xmlns="http://www.w3.org/2000/svg"><mask id="da" fill="#fff"><path fill-rule="evenodd" clip-rule="evenodd" d="M4.219 6.395C4.219 2.87 7.058 0 10.547 0c3.49 0 6.328 2.869 6.328 6.395 0 3.526-2.839 6.395-6.328 6.395-3.49 0-6.328-2.869-6.328-6.395zm7.734 7.816c2.438 0 4.735.98 6.467 2.757a9.37 9.37 0 012.674 6.575c0 .393-.315.71-.703.71H.703a.707.707 0 01-.703-.71 9.37 9.37 0 012.673-6.575c1.733-1.778 4.03-2.757 6.468-2.757h2.812z"/></mask><path d="M18.42 16.968l-1.432 1.396 1.432-1.396zm-15.747 0l1.433 1.396-1.433-1.396zM10.547-2C5.933-2 2.219 1.784 2.219 6.395h4C6.219 3.954 8.182 2 10.547 2v-4zm8.328 8.395c0-4.61-3.714-8.395-8.328-8.395v4c2.365 0 4.328 1.954 4.328 4.395h4zm-8.328 8.395c4.614 0 8.328-3.784 8.328-8.395h-4c0 2.442-1.963 4.395-4.328 4.395v4zM2.219 6.395c0 4.611 3.714 8.395 8.328 8.395v-4c-2.365 0-4.328-1.953-4.328-4.395h-4zm17.634 9.177c-2.102-2.156-4.912-3.36-7.9-3.36v4c1.888 0 3.671.753 5.035 2.152l2.865-2.792zm3.24 7.971a11.37 11.37 0 00-3.24-7.97l-2.865 2.79a7.371 7.371 0 012.106 5.18h4zm-2.702 2.71a2.707 2.707 0 002.703-2.71h-4c0-.692.56-1.29 1.297-1.29v4zm-19.688 0h19.688v-4H.703v4zM-2 23.544c0 1.477 1.19 2.71 2.703 2.71v-4c.736 0 1.297.598 1.297 1.29h-4zm3.241-7.97A11.37 11.37 0 00-2 23.542h4a7.37 7.37 0 012.106-5.18l-2.865-2.79zm7.9-3.362c-2.989 0-5.799 1.205-7.9 3.361l2.865 2.792c1.364-1.4 3.147-2.153 5.035-2.153v-4zm2.812 0H9.141v4h2.812v-4z" fill="#E5E5E5" mask="url(#da)"/></svg><svg fill="none" viewBox="0 0 30 35" id="play-btn" xmlns="http://www.w3.org/2000/svg"><path d="M30 17.5L0 34.388V.613L30 17.5z" fill="#E6C783"/></svg><svg fill="none" viewBox="0 0 26 27" id="s-facebook" xmlns="http://www.w3.org/2000/svg"><path d="M23.915 0H1.396C.625 0 0 .662 0 1.479v23.836c0 .816.626 1.478 1.397 1.477h12.124v-10.36h-3.287v-4.056h3.287V9.39c0-3.46 1.997-5.345 4.913-5.345 1.398 0 2.598.11 2.948.16v3.617h-2.011c-1.587 0-1.894.798-1.894 1.97v2.583h3.794l-.495 4.055h-3.3v10.361h6.44c.77 0 1.396-.661 1.396-1.478V1.478C25.313.66 24.688 0 23.916 0z" fill="#605F6C"/></svg><svg fill="none" viewBox="0 0 26 27" id="s-instagram" xmlns="http://www.w3.org/2000/svg"><path d="M3.379.18H21.96c1.765 0 3.209 1.382 3.209 3.395v19.67c0 2.013-1.444 3.396-3.209 3.396H3.38c-1.765 0-3.21-1.383-3.21-3.396V3.575C.17 1.562 1.615.18 3.38.18zM18.38 3.12c-.619 0-1.125.535-1.125 1.19v2.852c0 .655.506 1.191 1.125 1.191h2.826c.62 0 1.125-.536 1.125-1.19V4.31c0-.656-.506-1.192-1.125-1.192H18.38zm3.963 8.25h-2.2c.208.72.32 1.481.32 2.27 0 4.401-3.479 7.97-7.77 7.97-4.292 0-7.77-3.569-7.77-7.97 0-.79.112-1.551.32-2.27H2.948v11.178c0 .578.447 1.052.994 1.052H21.35c.547 0 .994-.474.994-1.052V11.37zm-9.65-3.167c-2.773 0-5.021 2.306-5.021 5.15 0 2.844 2.248 5.15 5.02 5.15 2.773 0 5.022-2.306 5.022-5.15 0-2.844-2.248-5.15-5.022-5.15z" fill="#605F6C"/></svg><svg fill="none" viewBox="0 0 22 28" id="s-pint" xmlns="http://www.w3.org/2000/svg"><path d="M11.184 0C3.749 0 0 5.33 0 9.776c0 2.69 1.019 5.085 3.204 5.978.359.146.68.005.784-.392.072-.275.243-.967.32-1.256.104-.392.063-.53-.226-.872-.63-.743-1.032-1.705-1.032-3.069 0-3.954 2.958-7.494 7.705-7.494 4.201 0 6.51 2.568 6.51 5.997 0 4.512-1.997 8.32-4.96 8.32-1.638 0-2.863-1.354-2.47-3.015.47-1.982 1.38-4.122 1.38-5.552 0-1.281-.686-2.35-2.11-2.35-1.673 0-3.017 1.731-3.017 4.05 0 1.478.499 2.477.499 2.477l-2.013 8.527c-.598 2.53-.09 5.633-.046 5.946.024.186.263.23.371.09.155-.202 2.148-2.662 2.825-5.121.192-.696 1.1-4.301 1.1-4.301.544 1.037 2.133 1.95 3.823 1.95 5.03 0 8.444-4.586 8.444-10.725C21.09 4.323 17.159 0 11.184 0z" fill="#605F6C"/></svg><svg fill="none" viewBox="0 0 35 22" id="s-vk" xmlns="http://www.w3.org/2000/svg"><path d="M33.867 19.236c-.091-.167-.657-1.507-3.377-4.262-2.848-2.885-2.465-2.416.965-7.404 2.089-3.038 2.924-4.894 2.663-5.687-.249-.756-1.785-.556-1.785-.556l-5.11.032s-.378-.055-.66.128c-.274.18-.45.598-.45.598s-.81 2.352-1.89 4.35c-2.276 4.219-3.188 4.441-3.56 4.18-.865-.61-.648-2.454-.648-3.762 0-4.088.567-5.793-1.107-6.233-.557-.147-.965-.244-2.387-.26-1.823-.021-3.368.007-4.242.473-.582.31-1.03 1.004-.756 1.043.338.05 1.103.225 1.509.828.525.777.506 2.526.506 2.526s.301 4.812-.704 5.41c-.69.41-1.636-.427-3.666-4.255-1.039-1.96-1.825-4.128-1.825-4.128s-.151-.404-.421-.62c-.327-.261-.786-.345-.786-.345l-4.858.033s-.73.023-.997.368c-.238.309-.02.944-.02.944s3.805 9.71 8.11 14.605c3.951 4.487 8.435 4.193 8.435 4.193h2.032s.614-.075.926-.443c.29-.339.279-.974.279-.974s-.04-2.975 1.226-3.414c1.247-.431 2.85 2.876 4.548 4.149 1.283.962 2.259.751 2.259.751l4.541-.07s2.376-.16 1.25-2.198z" fill="#605F6C"/></svg><svg fill="none" viewBox="0 0 27 27" id="s-zen" xmlns="http://www.w3.org/2000/svg"><g clip-path="url(#jclip0)" fill-rule="evenodd" clip-rule="evenodd"><path d="M13.351 0c-5.564 0-9.42.019-11.4 1.952C.02 3.93.002 7.967.002 13.35c5.977-.18 8.71-.33 10.891-2.46 2.129-2.18 2.279-4.913 2.46-10.891zm-11.4 25.048C.02 23.07 0 19.033 0 13.65c5.978.18 8.711.33 10.892 2.46 2.129 2.18 2.278 4.913 2.459 10.89-5.565 0-9.42-.017-11.4-1.95zM13.65 27c.18-5.978.33-8.711 2.46-10.892 2.18-2.129 4.913-2.278 10.89-2.459 0 5.384-.018 9.42-1.95 11.4-1.98 1.933-5.835 1.95-11.4 1.95zm0-27c.18 5.978.33 8.712 2.46 10.892 2.18 2.129 4.913 2.279 10.89 2.459 0-5.384-.018-9.42-1.95-11.4C23.068.02 19.213.002 13.648 0z" fill="#605F6C"/><path d="M27 13.65v-.298c-5.978-.181-8.712-.33-10.892-2.46C13.98 8.712 13.83 5.98 13.65.001h-.298c-.18 5.978-.33 8.712-2.46 10.891-2.18 2.13-4.913 2.279-10.891 2.46v.298c5.978.18 8.711.33 10.892 2.459C13.02 18.289 13.17 21.023 13.35 27h.299c.18-5.978.33-8.712 2.458-10.892 2.18-2.13 4.914-2.278 10.892-2.46z" fill="#3E3E3E"/></g><defs><clipPath id="jclip0"><path fill="#fff" d="M0 0h27v27H0z"/></clipPath></defs></svg><svg fill="none" viewBox="0 0 79 16" id="slider-arrow-left-black" xmlns="http://www.w3.org/2000/svg"><path d="M.293 7.293a1 1 0 000 1.414l6.364 6.364a1 1 0 001.414-1.414L2.414 8l5.657-5.657A1 1 0 006.657.93L.293 7.293zM79 7H1v2h78V7z" fill="#000"/></svg><svg fill="none" viewBox="0 0 79 16" id="slider-arrow-left-white" xmlns="http://www.w3.org/2000/svg"><path d="M.293 7.293a1 1 0 000 1.414l6.364 6.364a1 1 0 001.414-1.414L2.414 8l5.657-5.657A1 1 0 006.657.93L.293 7.293zM79 7H1v2h78V7z" fill="#C4C4C4"/></svg><svg fill="none" viewBox="0 0 79 16" id="slider-arrow-right-black" xmlns="http://www.w3.org/2000/svg"><path d="M78.707 8.707a1 1 0 000-1.414L72.343.929a1 1 0 10-1.414 1.414L76.586 8l-5.657 5.657a1 1 0 001.414 1.414l6.364-6.364zM0 9h78V7H0v2z" fill="#000"/></svg><svg fill="none" viewBox="0 0 79 16" id="slider-arrow-right-white" xmlns="http://www.w3.org/2000/svg"><path d="M78.707 8.707a1 1 0 000-1.414L72.343.929a1 1 0 10-1.414 1.414L76.586 8l-5.657 5.657a1 1 0 001.414 1.414l6.364-6.364zM0 9h78V7H0v2z" fill="#C4C4C4"/></svg><svg fill="none" viewBox="0 0 18 12" id="up-btn" xmlns="http://www.w3.org/2000/svg"><path d="M2.123 11.921L0 9.646 9 0l9 9.646-2.123 2.275L9 4.55 2.123 11.92z" fill="#C4C4C4"/></svg></svg>