<svg width="80" height="101" viewBox="0 0 80 101" fill="none" xmlns="http://www.w3.org/2000/svg"><path d="M11.96 11.96c15.442-15.442 40.479-15.442 55.92 0 15.443 15.442 15.443 40.479 0 55.92-15.441 15.443-40.478 15.443-55.92 0-15.442-15.441-15.442-40.478 0-55.92z" fill="#E6C783"/><path d="M11.708 45.168c-1.264 0-2.328-.3-3.192-.9v-1.8c.352.304.816.568 1.392.792.584.216 1.16.324 1.728.324.472 0 .86-.084 1.164-.252.304-.176.456-.416.456-.72 0-.328-.144-.56-.432-.696a2.789 2.789 0 00-.48-.216l-.288-.096-.672-.204-.624-.204a7.54 7.54 0 01-.564-.204 3.224 3.224 0 01-.54-.252c-.416-.288-.68-.532-.792-.732a2.603 2.603 0 01-.288-1.176c0-.744.284-1.328.852-1.752.568-.432 1.34-.648 2.316-.648.984 0 1.9.232 2.748.696v1.68c-.856-.528-1.764-.792-2.724-.792-.952 0-1.428.276-1.428.828 0 .24.148.432.444.576.176.096.404.18.684.252.376.104.68.192.912.264a6.434 6.434 0 011.824.876c.56.392.84.976.84 1.752 0 .808-.316 1.444-.948 1.908-.632.464-1.428.696-2.388.696zm3.964-7.02V36.6h7.044v1.548h-2.664V45h-1.728v-6.852h-2.652zm11.814 7.02c-1.048 0-1.908-.324-2.58-.972-.672-.648-1.008-1.556-1.008-2.724V36.6h1.716v4.932c0 .648.168 1.148.504 1.5.344.344.8.516 1.368.516.576 0 1.032-.172 1.368-.516.344-.352.516-.852.516-1.5V36.6h1.728v4.872c0 1.168-.34 2.076-1.02 2.724-.672.648-1.536.972-2.592.972zM35.974 45H32.83v-8.4h3.144c1.36 0 2.468.392 3.324 1.176.856.784 1.284 1.792 1.284 3.024 0 1.24-.428 2.252-1.284 3.036-.848.776-1.956 1.164-3.324 1.164zm-1.416-6.852v5.304h1.272c.936 0 1.664-.232 2.184-.696.528-.472.792-1.124.792-1.956 0-.832-.264-1.48-.792-1.944-.52-.472-1.248-.708-2.184-.708h-1.272zM43.922 45h-1.716v-8.4h1.716V45zm4.112-2.232c.496.52 1.116.78 1.86.78.736 0 1.352-.26 1.848-.78s.744-1.176.744-1.968-.248-1.448-.744-1.968-1.112-.78-1.848-.78c-.744 0-1.364.26-1.86.78-.488.512-.732 1.168-.732 1.968s.244 1.456.732 1.968zM45.538 40.8c0-1.232.412-2.264 1.236-3.096.824-.848 1.864-1.272 3.12-1.272 1.248 0 2.284.424 3.108 1.272.832.848 1.248 1.88 1.248 3.096 0 1.208-.416 2.24-1.248 3.096-.824.848-1.86 1.272-3.108 1.272-1.256 0-2.296-.424-3.12-1.272-.824-.848-1.236-1.88-1.236-3.096zm15.442 4.368c-.991 0-1.843-.224-2.555-.672v-1.644a4.21 4.21 0 002.46.768c.512 0 .932-.124 1.26-.372.328-.256.492-.6.492-1.032 0-.408-.152-.736-.456-.984-.304-.256-.708-.384-1.212-.384a3.2 3.2 0 00-1.188.228v-1.14l2.004-1.848h-3.096V36.6h5.304v1.296l-1.896 1.74c.6.104 1.128.38 1.584.828.456.44.684 1.024.684 1.752 0 .896-.324 1.612-.972 2.148-.64.536-1.444.804-2.412.804zM71.05 45h-1.68v-2.1h-4.212v-1.248l4.188-5.052h1.704v4.908h1.236V42.9H71.05V45zm-1.68-6.228l-2.304 2.736h2.304v-2.736z" fill="#000"/><path opacity=".2" d="M44 98.5c0 1.381-1.79 2.5-4 2.5s-4-1.119-4-2.5c0-1.38 1.79-2.5 4-2.5s4 1.12 4 2.5z" fill="#C4C4C4"/><path d="M42 76h-4v13h4V76z" fill="#E6C783"/></svg>