<svg width="25" height="14" viewBox="0 0 25 14" fill="none" xmlns="http://www.w3.org/2000/svg"><path d="M23.964 11.34c-.744-.883-1.62-1.637-2.449-2.438-.747-.722-.795-1.14-.194-1.973.656-.91 1.362-1.783 2.024-2.688.618-.846 1.25-1.69 1.575-2.702.206-.645.023-.93-.644-1.042a2.082 2.082 0 00-.351-.02L19.964.471c-.488-.007-.758.203-.93.63a23.89 23.89 0 01-.751 1.715c-.63 1.266-1.333 2.489-2.319 3.525-.217.228-.457.517-.82.398-.455-.164-.589-.905-.582-1.156L14.56 1.06c-.09-.646-.234-.934-.883-1.06H9.562c-.549 0-.824.21-1.117.55-.17.197-.22.324.127.39.683.128 1.068.565 1.17 1.243.164 1.082.152 2.17.058 3.256a3.001 3.001 0 01-.21.93c-.2.467-.52.561-.943.275-.382-.26-.65-.626-.913-.993-.987-1.38-1.774-2.868-2.416-4.432-.186-.451-.506-.725-.99-.733A102.04 102.04 0 00.764.487c-.715.014-.928.357-.637.999 1.295 2.849 2.735 5.618 4.616 8.142.966 1.295 2.074 2.438 3.506 3.248 1.624.918 3.37 1.194 5.211 1.11.862-.04 1.12-.262 1.16-1.112.027-.582.094-1.16.384-1.682.284-.513.715-.61 1.212-.292.248.16.458.363.655.578.485.525.953 1.066 1.456 1.573.632.636 1.38 1.011 2.32.935h3.641c.587-.038.89-.75.554-1.397-.237-.454-.547-.858-.877-1.249z" fill="#000" fill-opacity=".26"/></svg>