<svg width="24" height="23" viewBox="0 0 24 23" fill="none" xmlns="http://www.w3.org/2000/svg"><path fill-rule="evenodd" clip-rule="evenodd" d="M23.215 10.474c0 .804-.257 1.5-.77 2.088.14.412.21.767.209 1.066.028.71-.173 1.35-.603 1.92.159.524.159 1.07 0 1.64-.14.533-.392.972-.757 1.317.084 1.047-.145 1.893-.686 2.538-.599.71-1.519 1.074-2.762 1.093h-1.808c-.617 0-1.29-.073-2.018-.218a17.827 17.827 0 01-1.703-.406 77.2 77.2 0 01-1.689-.554c-1.15-.402-1.887-.607-2.214-.617a.927.927 0 01-.631-.273.84.84 0 01-.266-.624V10.46c0-.234.084-.437.252-.61a.92.92 0 01.603-.287c.224-.019.579-.295 1.065-.827.486-.533.958-1.098 1.416-1.696.635-.813 1.107-1.374 1.415-1.682a2.15 2.15 0 00.435-.673 4.48 4.48 0 00.245-.68c.042-.172.105-.455.19-.848.065-.364.123-.649.175-.855.051-.205.142-.448.273-.729.13-.28.29-.513.477-.7a.862.862 0 01.63-.267c.43 0 .816.05 1.157.148a3.1 3.1 0 01.841.364c.22.145.407.334.561.568.154.233.266.444.336.63.07.187.126.42.169.701.041.28.065.49.07.63.004.141.007.323.007.547 0 .356-.044.71-.133 1.066a5.723 5.723 0 01-.266.84 11.594 11.594 0 01-.526 1.038 2.34 2.34 0 00-.154.308 3.529 3.529 0 00-.112.337h3.882c.729 0 1.36.266 1.892.799.532.533.798 1.163.798 1.892zM1.686 9.578h4.037c.243 0 .453.09.63.267a.862.862 0 01.267.63v8.971a.863.863 0 01-.266.631.863.863 0 01-.631.266H1.686a.863.863 0 01-.63-.266.863.863 0 01-.267-.63v-8.971c0-.244.089-.454.266-.631a.862.862 0 01.631-.267zm1.794 8.97a.873.873 0 00.63-.258.854.854 0 00.267-.638.862.862 0 00-.266-.63.862.862 0 00-.63-.267.855.855 0 00-.638.266.873.873 0 00-.26.63c0 .253.087.466.26.639a.867.867 0 00.637.259z" fill="#746859"/></svg>