<svg width="24" height="22" viewBox="0 0 24 22" fill="none" xmlns="http://www.w3.org/2000/svg"><path fill-rule="evenodd" clip-rule="evenodd" d="M.789 11.99c0-.804.257-1.5.77-2.089-.14-.411-.21-.766-.209-1.065-.028-.71.173-1.35.603-1.92a2.883 2.883 0 010-1.64c.14-.533.392-.972.757-1.318-.084-1.046.145-1.892.686-2.537C3.995.711 4.915.347 6.158.328h1.808c.616 0 1.29.073 2.018.218.728.145 1.296.28 1.703.406.406.126.97.311 1.689.554 1.149.402 1.887.607 2.214.616.243.01.453.1.63.274.178.173.267.38.267.624v8.984a.846.846 0 01-.252.61.92.92 0 01-.603.287c-.224.019-.579.294-1.065.827a25.724 25.724 0 00-1.416 1.696c-.635.813-1.107 1.374-1.415 1.682a2.148 2.148 0 00-.435.673c-.121.28-.203.507-.245.68-.042.172-.105.455-.19.848-.065.364-.123.649-.175.854a4.173 4.173 0 01-.273.73c-.13.28-.29.513-.477.7a.862.862 0 01-.63.266c-.43 0-.816-.049-1.157-.147a3.071 3.071 0 01-.841-.364 1.966 1.966 0 01-.561-.568 3.269 3.269 0 01-.336-.63 3.54 3.54 0 01-.169-.701 6.03 6.03 0 01-.07-.631c-.004-.14-.007-.322-.007-.547 0-.355.044-.71.133-1.065.09-.355.178-.635.266-.84a11.58 11.58 0 01.526-1.038 2.382 2.382 0 00.266-.645H3.48c-.729 0-1.36-.266-1.892-.799-.532-.533-.798-1.163-.798-1.892zm21.529.895H18.28a.862.862 0 01-.63-.266.863.863 0 01-.267-.63V3.017c0-.243.089-.453.266-.631a.863.863 0 01.631-.266h4.037c.242 0 .453.089.63.266a.863.863 0 01.267.63v8.971a.862.862 0 01-.267.631.862.862 0 01-.63.266zm-1.794-8.97a.873.873 0 00-.631.26.854.854 0 00-.266.637c0 .243.088.453.266.63a.862.862 0 00.63.267.855.855 0 00.638-.266.873.873 0 00.26-.631.867.867 0 00-.26-.638.867.867 0 00-.637-.259z" fill="#000" fill-opacity=".26"/></svg>