<svg width="682" height="430" viewBox="0 0 682 430" fill="none" xmlns="http://www.w3.org/2000/svg"><path fill-rule="evenodd" clip-rule="evenodd" d="M.094 429.999v-99.346a107.98 107.98 0 01-.078-2.654H0v-64h.672V0H682v429H261.17v1H99.678v-.001H.094zM77.107 267.09a45.998 45.998 0 00-.79-.332h23.36v24.385a42.16 42.16 0 00-9.462-15.002c-3.791-3.881-8.195-6.921-13.109-9.051zm25.189 38.889a22.702 22.702 0 01-.103 2.097v19.911h-.219v97.314c84.947-.844 153.857-71.546 154.427-158.542H101.973v33.865c.215 1.742.323 3.505.323 5.284v.071zm-40.412-.616h36.812c-.316-20.683-16.636-37.452-36.812-37.897v37.897zm20.311 18.881c8.7-.73 15.669-7.815 16.436-16.702H82.195v16.702zm17.483-7.798c-2.11 3.961-5.37 7.191-9.317 9.219h9.317v-9.219zm-18.965 11.551c-.165-.001-.33-.005-.494-.01H61v.012H3.623c.96 53.556 43.603 96.869 96.055 97.306v-97.318H81.404c-.164.005-.329.009-.494.01h-.197zm-.546-20.455v16.748c-9.035-.385-16.368-7.618-17.162-16.748h17.161zm-8.906 18.123c-3.8-1.953-6.963-5.023-9.075-8.785v8.785h9.075zM259 284.117v143.775H119.159c14.936-1.782 29.458-5.705 43.366-11.729a158.112 158.112 0 0027.108-15.061 161.712 161.712 0 0023.618-19.947 163.797 163.797 0 0034.206-51.916A164.666 164.666 0 00259 284.117zm0-41.98a269.32 269.32 0 00-4.225-29.743 266.596 266.596 0 00-15.005-49.466 266.2 266.2 0 00-23.733-44.757 264.586 264.586 0 00-31.444-38.996 261.147 261.147 0 00-38.102-32.18 255.42 255.42 0 00-43.732-24.29A251.833 251.833 0 0054.425 7.348a253.372 253.372 0 00-44.448-5.24H259v240.029zm2.17 184.733h418.743V2.012H261.17V426.87zM2.03 266.758v43.427a62.78 62.78 0 012.768-8.264 62.493 62.493 0 0113.074-19.853C23.48 276.33 30 271.834 37.27 268.687a60.26 60.26 0 015.074-1.929H2.03zm56.94.736c-30.525 1.111-55.063 26.729-55.36 58.171h55.36v-58.171zM7.897 366.188a103.462 103.462 0 01-5.739-18.692v80.395H85.66a97.982 97.982 0 01-24.286-6.972c-11.965-5.182-22.716-12.6-31.94-22.041-9.226-9.442-16.474-20.445-21.537-32.69zM2.736 5.68c139.616.106 253.216 116.151 253.668 258.958H101.973v-.225H68.249a40.748 40.748 0 00-7.2-.636h-.023c-1.745 0-3.479.074-5.199.222H2.736V5.679z" fill="#E6C783"/><path fill-rule="evenodd" clip-rule="evenodd" d="M457.52 301.257v20.719h147.527L464.248 77 323.557 321.976h120.398v-2.726H328.223L464.248 82.452 600.273 319.25H460.179v-17.83l-2.659-.163zm-145.411 47.708c1.193.982 2.604 1.527 4.123 1.527.923 0 1.628-.164 2.116-.491.488-.327.706-.763.706-1.308 0-.437-.217-.873-.597-1.254-.38-.382-1.302-.873-2.822-1.527-1.248-.545-2.17-1.2-2.767-1.908-.542-.709-.868-1.527-.868-2.509 0-1.363.543-2.453 1.573-3.216 1.086-.764 2.442-1.145 4.178-1.145 1.52 0 2.767.218 3.636.599v2.836c-.977-.655-2.171-1.036-3.581-1.036-.814 0-1.465.163-2.008.49-.488.327-.76.764-.76 1.309 0 .436.163.818.543 1.199.326.382 1.194.818 2.442 1.418 1.465.654 2.496 1.309 3.092 2.072.597.709.868 1.581.868 2.563 0 1.417-.488 2.562-1.519 3.271-1.031.763-2.441 1.145-4.286 1.145-1.736 0-3.093-.273-4.178-.872v-3.163h.109zm45.142-9.214h-4.34v12.813h-2.93v-12.813h-4.341v-2.454h11.611v2.454zm36.462 6.379c0 4.525-2.062 6.761-6.24 6.761-3.961 0-5.969-2.181-5.969-6.543v-8.996h2.93v8.996c0 2.672 1.031 3.98 3.202 3.98 2.061 0 3.092-1.308 3.092-3.871v-9.105h2.93v8.778h.055zm25.718 6.434v-15.267h5.046c5.371 0 8.084 2.508 8.084 7.47 0 2.344-.759 4.253-2.279 5.67-1.519 1.418-3.472 2.127-5.859 2.127h-4.992zm2.93-12.813v10.359h1.845c1.627 0 2.929-.49 3.852-1.417.922-.927 1.356-2.236 1.356-3.926 0-1.636-.434-2.89-1.356-3.708-.923-.872-2.17-1.308-3.798-1.308h-1.899zm38.035-2.454v15.267h-2.93v-15.267h2.93zm24.958 7.852c0-2.399.706-4.362 2.062-5.834 1.357-1.473 3.201-2.236 5.48-2.236 2.17 0 3.907.709 5.209 2.181 1.302 1.472 1.953 3.326 1.953 5.561 0 2.399-.705 4.308-2.062 5.834-1.356 1.473-3.147 2.236-5.371 2.236-2.17 0-3.961-.709-5.263-2.181s-2.008-3.326-2.008-5.561zm3.093-.164c0 1.527.38 2.835 1.139 3.817.76.981 1.791 1.472 3.093 1.472 1.357 0 2.387-.491 3.147-1.418.76-.927 1.14-2.235 1.14-3.871 0-1.69-.38-2.999-1.086-3.926-.705-.981-1.736-1.417-3.092-1.417-1.357 0-2.388.49-3.202 1.526-.759.982-1.139 2.29-1.139 3.817zm80.844 4.471c1.031.763 2.225 1.145 3.527 1.145.868 0 1.574-.218 2.116-.6.543-.381.814-.981.814-1.745 0-1.581-1.194-2.399-3.581-2.399h-1.356v-2.235h1.248c2.116 0 3.201-.763 3.201-2.236 0-1.363-.814-2.071-2.442-2.071-1.031 0-2.007.327-2.984 1.035v-2.453c1.031-.545 2.225-.818 3.635-.818 1.411 0 2.55.327 3.419.981.868.655 1.302 1.582 1.302 2.781 0 1.963-1.031 3.217-3.039 3.762v.055c1.031.109 1.899.491 2.55 1.145.652.654.977 1.472.977 2.399 0 1.418-.543 2.563-1.573 3.38-1.031.818-2.442 1.254-4.124 1.254-1.519 0-2.767-.272-3.69-.763v-2.617zm42.864-12.159v9.76H614v2.126h-1.845v3.381h-2.658v-3.381h-6.62v-2.235c1.411-1.581 2.659-3.272 3.852-4.962 1.194-1.745 2.116-3.271 2.713-4.689h2.713zm-6.836 9.814h4.178v-5.888c-.434.763-1.031 1.69-1.791 2.781a46.863 46.863 0 01-2.387 3.107zM415.47 250.004c8.519 25.518 35.105 40.184 61.149 33.751 25.989-6.489 42.755-31.897 38.469-58.45-4.287-26.553-28.16-45.418-54.855-43.292v90.782a46.674 46.674 0 01-2.713-.381v-92.909c28.323-3.599 54.583 15.539 59.955 43.728s-11.882 55.724-39.554 62.975c-27.617 7.252-56.103-8.342-65.055-35.549-8.953-27.262 4.666-56.814 31.089-67.555v2.944c-24.633 10.577-37.004 38.439-28.485 63.956z" fill="#E6C783"/></svg>