<svg width="499" height="496" viewBox="0 0 499 496" fill="none" xmlns="http://www.w3.org/2000/svg"><path d="M228.822 246.312c-.392.121-.789.231-1.19.331a26.242 26.242 0 00-2.928-.521 19.98 19.98 0 002.984-.748 19.675 19.675 0 005.536-2.86c1.728-1.235 3.096-2.693 4.094-4.376 1.069-1.761 1.602-3.711 1.602-5.838a14.33 14.33 0 00-1.675-6.796c-1.064-2.187-2.691-3.935-4.865-5.241-2.136-1.319-4.752-1.963-7.82-1.963-2.893 0-5.469.616-7.713 1.863l-.006.003c-2.175 1.243-3.917 2.954-5.22 5.127l-.002.003c-1.176 1.999-1.792 4.291-1.863 6.864h-1.791c.066-3.016.738-5.642 1.998-7.891 1.392-2.377 3.333-4.231 5.832-5.568l.008-.004c2.495-1.393 5.408-2.097 8.757-2.097 3.527 0 6.459.764 8.822 2.262h0l.012.008c2.444 1.455 4.266 3.367 5.48 5.738l.005.008c1.281 2.389 1.921 4.917 1.921 7.594 0 2.322-.522 4.396-1.556 6.235-1.044 1.855-2.466 3.453-4.272 4.793l-.007.005c-1.747 1.34-3.791 2.364-6.139 3.068l-.004.001zm-6.822.623c.978.018 1.947.092 2.908.22a26.26 26.26 0 01-2.908.211v-.431zm5.939 2.075a23.66 23.66 0 00-3.497-.793 25.149 25.149 0 003.191-.545c.489.121.975.256 1.459.406h0l.013.004c2.529.705 4.786 1.762 6.776 3.166l.007.005.007.005a15.303 15.303 0 014.883 5.144c1.206 2.068 1.822 4.587 1.822 7.578 0 3.214-.788 6.06-2.354 8.554l-.004.007c-1.509 2.496-3.627 4.442-6.367 5.842-2.738 1.339-5.959 2.017-9.675 2.017-3.011 0-5.68-.443-8.014-1.318-2.283-.878-4.267-2.075-5.956-3.588a16.492 16.492 0 01-3.748-5.403c-.757-1.951-1.163-4.03-1.217-6.241h1.881c.074 2.702.753 5.144 2.044 7.316l.004.006.004.007c1.43 2.239 3.417 4.035 5.945 5.392 2.547 1.366 5.572 2.039 9.057 2.039 3.301 0 6.201-.612 8.683-1.853l.009-.004c2.474-1.299 4.404-3.07 5.774-5.312l.003-.005c1.369-2.303 2.051-4.882 2.051-7.726 0-2.656-.618-4.971-1.875-6.923-1.179-1.983-2.76-3.625-4.738-4.923a20.928 20.928 0 00-6.168-2.854zm57.438-31.51h.227v46.7h-1.97v-41.62l-.913 1.338-27.63 40.5-.533.782h28.076v1.7h-31.131l33.874-49.4zm-1.743 47.7h1.97v1.7h-1.97v-1.7zm0 2.7h1.97v11.6h-1.97v-11.6zm2.97-1v-1.7h8.81v1.7h-8.81zM1.681 248.051h0C1.783 384.011 112.806 494.66 249.32 494.66c136.412 0 247.435-110.649 247.435-246.609 0-136.062-111.023-246.71-247.537-246.71C112.703 1.34 1.681 111.988 1.681 248.05zM249.32.5c136.889 0 248.282 111.022 248.282 247.551S386.209 495.5 249.32 495.5C112.432 495.5 1.04 384.478 1.04 248.051 1.04 111.624 112.33.5 249.32.5zm158.029 84.132l.452.451-97.319 97.236-.452-.451 97.319-97.236zm-223.486 222.63l.452.452-97.32 97.235-.451-.451 97.319-97.236z" fill="#E6C783" stroke="#E6C783"/></svg>