<svg width="805" height="496" viewBox="0 0 805 496" fill="none" xmlns="http://www.w3.org/2000/svg"><path d="M189.382 116.663h29.546v29.448h-29.546v-29.448zm27.699 1.841h-25.955v25.868h25.955v-25.868zm399.401 64.522l98.027-97.942-1.159-1.159-98.027 97.943 1.159 1.158zM392.996 405.657l98.027-97.943-1.16-1.158-98.026 97.942 1.159 1.159zM193.257 304.245l60.57-60.517-.725-.724-60.569 60.517.724.724zM55.175 441.864l60.604-60.483-.724-.724-60.604 60.483.724.724zM119.723 71.68l37.463-37.42-.435-.435-37.462 37.42.434.434zm-85.324 85.133l37.452-37.43-.435-.434-37.452 37.43.435.434zM263.752 44.6l23.112-23.093-.29-.29-23.112 23.093.29.29zm-52.727 52.556l23.112-23.093-.289-.29-23.113 23.093.29.29zm69.283 47.514l14.341-14.337-.145-.145-14.341 14.338.145.144zm-32.619 32.517l14.342-14.337-.145-.145-14.342 14.337.145.145zm-29.391-15.23l8.839-8.831-.073-.073-8.839 8.832.073.072zm-20.109 20.04l8.839-8.832-.073-.072-8.839 8.832.073.072z" fill="#E1C78C"/><path d="M.102 0h804v496h-804V0zm802.154 1.84H1.846v492.32h800.41V1.84z" fill="#E1C78C"/><path d="M.102 188.851h308.182V496H.102V188.851zm306.335 1.738H1.847V494.16h304.59V190.589z" fill="#E1C78C"/><path d="M.102 0h191.126v190.588H0V0h.102zm189.382 1.84H1.846v187.01h187.638V1.84z" fill="#E1C78C"/><path d="M189.484 0h118.8v118.504h-118.8V0zm116.953 1.84H191.228v114.824h115.209V1.841z" fill="#E1C78C"/><path d="M234.111 116.664h74.173v73.924h-74.173v-73.924zm72.326 1.84h-70.582v70.346h70.582v-70.346z" fill="#E1C78C"/><path d="M189.484 144.373h46.474v46.318h-46.474v-46.318zm44.627 1.738h-42.78v42.637h42.78v-42.637zM555.321 0c137.163 0 248.781 111.245 248.781 248.052C804.102 384.858 692.484 496 555.321 496S306.539 384.756 306.539 248.051c0-136.704 111.516-248.05 248.782-248.05zm0 494.16c136.137 0 246.935-110.427 246.935-246.108 0-135.784-110.798-246.211-247.038-246.211S308.181 112.268 308.181 248.05c.102 135.682 110.9 246.109 247.14 246.109z" fill="#E1C78C"/><path d="M154.193 188.851c84.945 0 154.091 68.914 154.091 153.575 0 84.66-69.146 153.574-154.091 153.574C69.248 496 .103 427.086.103 342.426c0-84.763 69.043-153.575 154.09-153.575zm0 305.309c84.021 0 152.347-68.096 152.347-151.837 0-83.74-68.326-151.836-152.347-151.836-84.021 0-152.347 68.096-152.347 151.836 0 83.741 68.326 151.837 152.347 151.837z" fill="#E1C78C"/><path d="M95.716 0c52.732 0 95.615 42.74 95.615 95.294 0 52.555-42.883 95.294-95.615 95.294-52.731 0-95.614-42.739-95.614-95.294S42.985 0 95.716 0zm0 188.85c51.706 0 93.768-41.921 93.768-93.454 0-51.532-42.062-93.453-93.768-93.453-51.705 0-93.767 41.921-93.767 93.453 0 51.533 41.96 93.454 93.767 93.454z" fill="#E1C78C"/><path d="M248.884 0c32.726 0 59.4 26.585 59.4 59.202s-26.674 59.201-59.4 59.201-59.4-26.584-59.4-59.201c0-32.617 26.674-59.201 59.4-59.201zm0 116.665c31.803 0 57.553-25.767 57.553-57.36 0-31.697-25.853-57.361-57.553-57.361-31.803 0-57.553 25.766-57.553 57.36-.103 31.594 25.75 57.361 57.553 57.361z" fill="#E1C78C"/><path d="M271.146 116.664c20.415 0 37.138 16.564 37.138 37.014 0 20.347-16.62 37.013-37.138 37.013-20.416 0-37.138-16.564-37.138-37.014.103-20.449 16.722-37.013 37.138-37.013zm0 72.186c19.492 0 35.291-15.746 35.291-35.173 0-19.426-15.799-35.172-35.291-35.172-19.492 0-35.291 15.746-35.291 35.172 0 19.325 15.901 35.173 35.291 35.173z" fill="#E1C78C"/><path d="M212.669 144.373c12.824 0 23.186 10.429 23.186 23.108 0 12.78-10.464 23.107-23.186 23.107-12.823 0-23.185-10.429-23.185-23.107 0-12.781 10.362-23.108 23.185-23.108zm0 44.477c11.798 0 21.442-9.611 21.442-21.369 0-11.759-9.644-21.37-21.442-21.37-11.797 0-21.441 9.611-21.441 21.37 0 11.758 9.644 21.369 21.441 21.369z" fill="#E1C78C"/><path d="M204.257 116.664c8.105 0 14.773 6.646 14.773 14.723 0 8.078-6.668 14.724-14.773 14.724-8.104 0-14.773-6.646-14.773-14.724 0-8.077 6.566-14.723 14.773-14.723zm0 27.709c7.182 0 12.927-5.828 12.927-12.883 0-7.158-5.848-12.884-12.927-12.884-7.078 0-12.926 5.828-12.926 12.884-.103 7.055 5.745 12.883 12.926 12.883zM527.5 247.87c2.64 0 5.13-.36 7.47-1.08 2.4-.72 4.5-1.769 6.3-3.149 1.86-1.38 3.33-3.03 4.41-4.95 1.08-1.92 1.62-4.08 1.62-6.48 0-2.76-.66-5.37-1.98-7.83-1.26-2.46-3.15-4.44-5.67-5.94-2.46-1.56-5.49-2.34-9.09-2.34-3.42 0-6.42.719-9 2.159-2.58 1.38-4.59 3.301-6.03 5.761-1.38 2.46-2.07 5.34-2.07 8.64h2.79c0-2.7.6-5.07 1.8-7.11 1.26-2.1 2.94-3.75 5.04-4.95 2.16-1.2 4.65-1.8 7.47-1.8 3 0 5.52.63 7.56 1.89 2.1 1.26 3.66 2.94 4.68 5.039a13.84 13.84 0 011.62 6.571c0 2.04-.51 3.9-1.53 5.58-.96 1.62-2.28 3.03-3.96 4.23a19.21 19.21 0 01-5.4 2.789c-1.98.66-3.99.991-6.03.991v1.979zm2.7 33.031c3.78 0 7.08-.69 9.9-2.07 2.82-1.44 5.01-3.45 6.57-6.03 1.62-2.58 2.43-5.521 2.43-8.821 0-3.06-.63-5.669-1.89-7.829a15.805 15.805 0 00-5.04-5.311c-2.04-1.44-4.35-2.519-6.93-3.239-2.52-.78-5.1-1.171-7.74-1.171v2.071c2.04 0 4.14.33 6.3.99 2.16.6 4.17 1.53 6.03 2.79 1.92 1.26 3.45 2.85 4.59 4.77 1.2 1.86 1.8 4.08 1.8 6.66 0 2.76-.66 5.25-1.98 7.47-1.32 2.16-3.18 3.869-5.58 5.129-2.4 1.2-5.22 1.801-8.46 1.801-3.42 0-6.36-.661-8.82-1.981s-4.38-3.059-5.76-5.219c-1.32-2.22-1.98-4.74-1.98-7.56h-2.88c0 2.46.42 4.77 1.26 6.93.9 2.1 2.19 3.96 3.87 5.58 1.74 1.56 3.78 2.79 6.12 3.69 2.4.9 5.13 1.35 8.19 1.35zm26.354-13.5h45.36v-2.7h-40.41l27.63-40.5V280h2.97v-62.999h-.99l-34.56 50.4zM119.8 369h34.95v-2.325h-29.7l20.925-21.824c2-2 3.7-4.176 5.1-6.525 1.4-2.4 2.1-5.076 2.1-8.026 0-1.6-.3-3.249-.9-4.949-.55-1.7-1.425-3.276-2.625-4.726-1.15-1.45-2.675-2.624-4.575-3.524-1.9-.95-4.15-1.426-6.75-1.426-3.25 0-6.1.801-8.55 2.401-2.4 1.55-4.275 3.749-5.625 6.599-1.3 2.8-1.95 6.075-1.95 9.825h2.475c0-3.25.55-6.1 1.65-8.549 1.1-2.5 2.675-4.45 4.725-5.85 2.1-1.4 4.525-2.101 7.275-2.101 2.15 0 4 .375 5.55 1.125 1.55.75 2.825 1.75 3.825 3 1 1.2 1.725 2.526 2.175 3.976.5 1.45.75 2.874.75 4.274 0 1.9-.3 3.601-.9 5.101-.6 1.5-1.4 2.899-2.4 4.199-.95 1.3-2.05 2.575-3.3 3.825L119.8 369zm44.72-46.95l12.45-3V369h2.4v-52.95l-14.85 3.45v2.55zM68.4 78.44l9.96-2.4v39.961h1.92v-42.36L68.4 76.4v2.04zm34.912 16.14c1.76 0 3.42-.24 4.98-.72 1.6-.48 3-1.18 4.2-2.1 1.24-.92 2.22-2.02 2.94-3.3.72-1.28 1.08-2.72 1.08-4.32 0-1.84-.44-3.58-1.32-5.22-.84-1.64-2.1-2.96-3.78-3.96-1.64-1.04-3.66-1.56-6.06-1.56-2.28 0-4.28.48-6 1.44-1.72.92-3.06 2.2-4.02 3.84-.92 1.64-1.38 3.56-1.38 5.76h1.86c0-1.8.4-3.38 1.2-4.74.84-1.4 1.96-2.5 3.36-3.3 1.44-.8 3.1-1.2 4.98-1.2 2 0 3.68.42 5.04 1.26 1.4.84 2.44 1.96 3.12 3.36a9.222 9.222 0 011.08 4.38c0 1.36-.34 2.6-1.02 3.72-.64 1.08-1.52 2.02-2.64 2.82-1.08.8-2.28 1.42-3.6 1.86-1.32.44-2.66.66-4.02.66v1.32zm1.8 22.021c2.52 0 4.72-.46 6.6-1.38 1.88-.96 3.34-2.3 4.38-4.02 1.08-1.72 1.62-3.68 1.62-5.88 0-2.04-.42-3.78-1.26-5.22-.84-1.44-1.96-2.62-3.36-3.54-1.36-.96-2.9-1.68-4.62-2.16-1.68-.52-3.4-.78-5.16-.78V95c1.36 0 2.76.22 4.2.66 1.44.4 2.78 1.02 4.02 1.86 1.28.84 2.3 1.9 3.06 3.18.8 1.24 1.2 2.72 1.2 4.44 0 1.84-.44 3.5-1.32 4.98-.88 1.44-2.12 2.58-3.72 3.42-1.6.8-3.48 1.2-5.64 1.2-2.28 0-4.24-.44-5.88-1.32-1.64-.88-2.92-2.04-3.84-3.48-.88-1.48-1.32-3.16-1.32-5.04h-1.92c0 1.64.28 3.18.84 4.62.6 1.4 1.46 2.64 2.58 3.72 1.16 1.04 2.52 1.86 4.08 2.46 1.6.6 3.42.9 5.46.9zM240.2 50.1c0 1.267.233 2.434.7 3.5a9.34 9.34 0 002 2.8 9.386 9.386 0 002.85 1.8c1.067.4 2.183.6 3.35.6 1.167 0 2.283-.2 3.35-.6a9.882 9.882 0 002.95-1.8 8.304 8.304 0 002-2.8c.467-1.066.7-2.233.7-3.5a8.452 8.452 0 00-.65-3.3 7.65 7.65 0 00-1.9-2.7 8.9 8.9 0 00-2.85-1.9c-1.067-.466-2.267-.7-3.6-.7-1.7 0-3.217.4-4.55 1.2a9.34 9.34 0 00-3.2 3.15 8.214 8.214 0 00-1.15 4.25zm1.55.15c0-1.333.317-2.55.95-3.65a7.468 7.468 0 012.6-2.6c1.1-.666 2.367-1 3.8-1 1.433 0 2.7.334 3.8 1a6.851 6.851 0 012.65 2.6c.633 1.1.95 2.317.95 3.65 0 1.434-.383 2.717-1.15 3.85-.767 1.134-1.717 2.017-2.85 2.65-1.133.634-2.267.95-3.4.95-1.1 0-2.217-.316-3.35-.95-1.133-.633-2.083-1.516-2.85-2.65-.767-1.133-1.15-2.416-1.15-3.85zM239.1 67.7c0 1.367.217 2.65.65 3.85a9.528 9.528 0 002 3.1c.9.9 1.95 1.6 3.15 2.1 1.233.5 2.633.75 4.2.75 1.567 0 2.967-.25 4.2-.75 1.267-.5 2.333-1.2 3.2-2.1a8.873 8.873 0 001.95-3.1c.467-1.2.7-2.483.7-3.85 0-1.466-.267-2.783-.8-3.95a8.552 8.552 0 00-2.25-3.05 11.108 11.108 0 00-3.25-1.95c-1.2-.466-2.45-.7-3.75-.7-1.3 0-2.55.234-3.75.7a10.44 10.44 0 00-3.2 1.95c-.933.834-1.683 1.85-2.25 3.05-.533 1.167-.8 2.484-.8 3.95zm1.6-.2c0-1.633.4-3.066 1.2-4.3a9.032 9.032 0 013.15-2.9c1.3-.733 2.65-1.1 4.05-1.1s2.75.367 4.05 1.1c1.3.7 2.367 1.667 3.2 2.9.833 1.234 1.25 2.667 1.25 4.3 0 1.667-.367 3.15-1.1 4.45a7.728 7.728 0 01-2.95 3c-1.267.7-2.75 1.05-4.45 1.05-1.667 0-3.133-.35-4.4-1.05a7.728 7.728 0 01-2.95-3c-.7-1.3-1.05-2.783-1.05-4.45zm37.3 90.6c0-1.32-.27-2.479-.81-3.479s-1.27-1.78-2.19-2.34c-.9-.56-1.92-.84-3.06-.84-1.08 0-2.05.209-2.91.629-.84.4-1.48.87-1.92 1.41l2.07-8.579h9.18v-.9h-9.9l-2.76 11.19c.58-.64 1.17-1.171 1.77-1.591.6-.42 1.23-.729 1.89-.929.68-.22 1.42-.33 2.22-.33 1 0 1.91.24 2.73.72.82.48 1.47 1.159 1.95 2.039.48.86.72 1.86.72 3 0 1.32-.26 2.451-.78 3.391-.5.92-1.2 1.63-2.1 2.13-.9.5-1.92.75-3.06.75-.96 0-1.81-.17-2.55-.51a5.83 5.83 0 01-1.92-1.41 7.929 7.929 0 01-1.26-2.101l-.87.541c.4.86.89 1.63 1.47 2.31a6.19 6.19 0 002.13 1.559c.86.36 1.86.541 3 .541.96 0 1.86-.151 2.7-.451.84-.3 1.58-.749 2.22-1.349.66-.6 1.16-1.35 1.5-2.25.36-.9.54-1.951.54-3.151zm-66 9.761c.587 0 1.14-.08 1.66-.24.533-.16 1-.394 1.4-.7.413-.307.74-.674.98-1.101.24-.426.36-.906.36-1.439 0-.614-.147-1.194-.44-1.74-.28-.547-.7-.987-1.26-1.321-.547-.346-1.22-.519-2.02-.519-.76 0-1.427.16-2 .48a3.345 3.345 0 00-1.34 1.28c-.307.546-.46 1.186-.46 1.919h.62c0-.6.133-1.126.4-1.579.28-.467.653-.834 1.12-1.1.48-.267 1.033-.4 1.66-.4.667 0 1.227.139 1.68.419.467.28.813.654 1.04 1.121.24.453.36.94.36 1.46 0 .453-.113.866-.34 1.24-.213.36-.507.673-.88.94-.36.266-.76.473-1.2.62-.44.146-.887.22-1.34.22v.44zm.6 7.34c.84 0 1.573-.154 2.2-.46a3.554 3.554 0 001.46-1.34c.36-.574.54-1.227.54-1.96 0-.68-.14-1.26-.42-1.74a3.502 3.502 0 00-1.12-1.18 4.956 4.956 0 00-1.54-.72 5.762 5.762 0 00-1.72-.261v.461c.453 0 .92.073 1.4.22.48.133.927.34 1.34.62.427.28.767.633 1.02 1.059.267.414.4.907.4 1.481 0 .613-.147 1.166-.44 1.66-.293.48-.707.86-1.24 1.14-.533.266-1.16.4-1.88.4-.76 0-1.413-.147-1.96-.44a3.383 3.383 0 01-1.28-1.161 3.224 3.224 0 01-.44-1.679h-.64c0 .546.093 1.059.28 1.539.2.467.487.881.86 1.241.387.346.84.62 1.36.82.533.2 1.14.3 1.82.3z" fill="#E1C78C"/><path d="M201.286 136.001h6.214v-.676h-4.719l3.315-3.419a5.29 5.29 0 00.871-1.183 2.8 2.8 0 00.364-1.391c0-.278-.052-.564-.156-.858a2.544 2.544 0 00-.494-.845 2.314 2.314 0 00-.845-.624c-.338-.165-.745-.247-1.222-.247-.589 0-1.101.138-1.534.416a2.66 2.66 0 00-.988 1.144c-.225.485-.338 1.053-.338 1.703h.715c0-.52.087-.975.26-1.365.173-.39.42-.689.741-.897.321-.217.702-.325 1.144-.325.338 0 .628.06.871.182.251.112.455.264.611.454.165.182.286.386.364.612.087.225.13.45.13.676 0 .286-.048.554-.143.806a3.05 3.05 0 01-.364.702 6.134 6.134 0 01-.546.65l-4.251 4.485zm23.832-7.787l2.093-.546v8.333h.715v-9.204l-2.808.676v.741z" fill="#E1C78C"/></svg>