<svg width="120" height="119" viewBox="0 0 120 119" fill="none" xmlns="http://www.w3.org/2000/svg"><path d="M59.884 0c32.727 0 59.4 26.584 59.4 59.201 0 32.617-26.674 59.201-59.4 59.201S.484 91.818.484 59.201C.484 26.584 27.158 0 59.884 0zm0 116.664c31.803 0 57.553-25.766 57.553-57.36 0-31.697-25.852-57.361-57.553-57.361-31.803 0-57.553 25.766-57.553 57.36-.103 31.594 25.75 57.361 57.553 57.361z" fill="#E1C78C"/><path d="M74.752 44.599l23.112-23.093-.29-.29L74.462 44.31l.29.29zM22.026 97.155l23.112-23.092-.29-.29-23.112 23.092.29.29zM51.2 50.1c0 1.266.233 2.433.7 3.5.5 1.066 1.167 2 2 2.8a9.397 9.397 0 002.85 1.8c1.067.4 2.184.6 3.35.6 1.167 0 2.283-.2 3.35-.6a9.882 9.882 0 002.95-1.8 8.306 8.306 0 002-2.8c.467-1.067.7-2.234.7-3.5a8.445 8.445 0 00-.65-3.3 7.649 7.649 0 00-1.9-2.7c-.8-.8-1.75-1.434-2.85-1.9-1.067-.467-2.267-.7-3.6-.7-1.7 0-3.217.4-4.55 1.2a9.34 9.34 0 00-3.2 3.15 8.217 8.217 0 00-1.15 4.25zm1.55.15c0-1.334.317-2.55.95-3.65a7.467 7.467 0 012.6-2.6c1.1-.667 2.367-1 3.8-1 1.433 0 2.7.333 3.8 1a6.852 6.852 0 012.65 2.6c.633 1.1.95 2.316.95 3.65 0 1.433-.383 2.716-1.15 3.85-.766 1.133-1.716 2.016-2.85 2.65-1.133.633-2.267.95-3.4.95-1.1 0-2.217-.317-3.35-.95-1.133-.634-2.083-1.517-2.85-2.65-.767-1.134-1.15-2.417-1.15-3.85zM50.1 67.7c0 1.366.217 2.65.65 3.85a9.527 9.527 0 002 3.1c.9.9 1.95 1.6 3.15 2.1 1.233.5 2.633.75 4.2.75 1.567 0 2.967-.25 4.2-.75 1.267-.5 2.334-1.2 3.2-2.1a8.885 8.885 0 001.95-3.1c.467-1.2.7-2.484.7-3.85 0-1.467-.267-2.784-.8-3.95a8.561 8.561 0 00-2.25-3.05 11.1 11.1 0 00-3.25-1.95c-1.2-.467-2.45-.7-3.75-.7-1.3 0-2.55.233-3.75.7a10.44 10.44 0 00-3.2 1.95c-.933.833-1.683 1.85-2.25 3.05-.533 1.166-.8 2.483-.8 3.95zm1.6-.2c0-1.634.4-3.067 1.2-4.3a9.036 9.036 0 013.15-2.9c1.3-.734 2.65-1.1 4.05-1.1s2.75.366 4.05 1.1c1.3.7 2.367 1.666 3.2 2.9.834 1.233 1.25 2.666 1.25 4.3 0 1.666-.366 3.15-1.1 4.45a7.731 7.731 0 01-2.95 3c-1.267.7-2.75 1.05-4.45 1.05-1.666 0-3.133-.35-4.4-1.05a7.73 7.73 0 01-2.95-3c-.7-1.3-1.05-2.784-1.05-4.45z" fill="#E1C78C"/></svg>