<svg width="805" height="496" viewBox="0 0 805 496" fill="none" xmlns="http://www.w3.org/2000/svg">
<path d="M189.382 116.663L218.928 116.663L218.928 146.111L189.382 146.111V116.663ZM217.081 118.504L191.126 118.504L191.126 144.372H217.081L217.081 118.504Z" fill="#E1C78C"/>
<path d="M616.482 183.026L714.509 85.0837L713.35 83.9255L615.323 181.868L616.482 183.026Z" fill="#E1C78C"/>
<path d="M392.996 405.657L491.023 307.714L489.863 306.556L391.837 404.498L392.996 405.657Z" fill="#E1C78C"/>
<path d="M193.257 304.245L253.827 243.728L253.102 243.004L192.533 303.521L193.257 304.245Z" fill="#E1C78C"/>
<path d="M55.175 441.864L115.779 381.381L115.055 380.657L54.4509 441.14L55.175 441.864Z" fill="#E1C78C"/>
<path d="M119.723 71.6795L157.186 34.2596L156.751 33.8252L119.289 71.2451L119.723 71.6795Z" fill="#E1C78C"/>
<path d="M34.399 156.813L71.8512 119.383L71.4164 118.949L33.9642 156.379L34.399 156.813Z" fill="#E1C78C"/>
<path d="M263.752 44.5993L286.864 21.5071L286.574 21.2175L263.462 44.3097L263.752 44.5993Z" fill="#E1C78C"/>
<path d="M211.025 97.1555L234.137 74.0635L233.848 73.7739L210.735 96.866L211.025 97.1555Z" fill="#E1C78C"/>
<path d="M280.308 144.67L294.649 130.333L294.504 130.188L280.163 144.526L280.308 144.67Z" fill="#E1C78C"/>
<path d="M247.689 177.187L262.031 162.85L261.886 162.705L247.544 177.042L247.689 177.187Z" fill="#E1C78C"/>
<path d="M218.298 161.957L227.137 153.126L227.064 153.053L218.225 161.885L218.298 161.957Z" fill="#E1C78C"/>
<path d="M198.189 181.997L207.028 173.165L206.955 173.093L198.116 181.925L198.189 181.997Z" fill="#E1C78C"/>
<path d="M0.102261 0.000332246L804.102 0.000407396V496L0.10222 496L0.102261 0.000332246ZM802.256 1.84087L1.84631 1.8408L1.84627 494.16L802.256 494.16V1.84087Z" fill="#E1C78C"/>
<path d="M0.102428 188.851L308.284 188.851L308.284 496L0.10222 496L0.102428 188.851ZM306.437 190.589L1.84647 190.589L1.84627 494.16L306.437 494.16V190.589Z" fill="#E1C78C"/>
<path d="M0.102261 0.000332246L191.228 1.78742e-05L191.228 190.588L0 190.588L1.55837e-05 0L0.102261 0.000332246ZM189.484 1.84048L1.84631 1.8408L1.84661 188.85L189.484 188.85L189.484 1.84048Z" fill="#E1C78C"/>
<path d="M189.484 0.000134304L308.284 0.000145408L308.284 118.504L189.484 118.504L189.484 0.000134304ZM306.437 1.84061L191.228 1.8406L191.228 116.664L306.437 116.664V1.84061Z" fill="#E1C78C"/>
<path d="M234.111 116.664L308.284 116.664V190.588L234.111 190.588V116.664ZM306.437 118.504L235.855 118.504V188.85H306.437L306.437 118.504Z" fill="#E1C78C"/>
<path d="M189.484 144.373H235.958L235.958 190.691H189.484V144.373ZM234.111 146.111H191.331V188.748H234.111V146.111Z" fill="#E1C78C"/>
<path d="M555.321 0.000384142C692.484 0.000396963 804.102 111.245 804.102 248.052C804.102 384.858 692.484 496 555.321 496C418.158 496 306.539 384.756 306.539 248.051C306.539 111.347 418.055 0.000371312 555.321 0.000384142ZM555.321 494.16C691.458 494.16 802.256 383.733 802.256 248.052C802.256 112.268 691.458 1.84086 555.218 1.84085C418.978 1.84084 308.181 112.268 308.181 248.051C308.283 383.733 419.081 494.16 555.321 494.16Z" fill="#E1C78C"/>
<path d="M154.193 188.851C239.138 188.851 308.284 257.765 308.284 342.426C308.284 427.086 239.138 496 154.193 496C69.2483 496 0.102438 427.086 0.102445 342.426C0.102451 257.663 69.1457 188.851 154.193 188.851ZM154.193 494.16C238.214 494.16 306.54 426.064 306.54 342.323C306.54 258.583 238.214 190.487 154.193 190.487C70.1716 190.487 1.8465 258.583 1.84649 342.323C1.84649 426.064 70.1716 494.16 154.193 494.16Z" fill="#E1C78C"/>
<path d="M95.7164 8.94665e-06C148.448 1.38755e-05 191.331 42.7393 191.331 95.2942C191.331 147.849 148.448 190.588 95.7164 190.588C42.985 190.588 0.102236 147.849 0.10224 95.2942C0.102244 42.7392 42.985 4.01782e-06 95.7164 8.94665e-06ZM95.7164 188.85C147.422 188.85 189.484 146.929 189.484 95.3964C189.484 43.864 147.422 1.9427 95.7164 1.94269C44.0109 1.94269 1.94886 43.864 1.94885 95.3964C1.94885 146.929 43.9083 188.85 95.7164 188.85Z" fill="#E1C78C"/>
<path d="M248.884 0.000815907C281.61 0.000819177 308.284 26.585 308.284 59.2018C308.284 91.8186 281.61 118.403 248.884 118.403C216.158 118.403 189.484 91.8186 189.484 59.2018C189.484 26.585 216.158 0.000812636 248.884 0.000815907ZM248.884 116.665C280.687 116.665 306.437 90.8984 306.437 59.3041C306.437 27.6075 280.584 1.94351 248.884 1.9435C217.081 1.9435 191.331 27.7097 191.331 59.3041C191.228 90.8984 217.081 116.665 248.884 116.665Z" fill="#E1C78C"/>
<path d="M271.146 116.664C291.561 116.664 308.284 133.228 308.284 153.678C308.284 174.025 291.664 190.691 271.146 190.691C250.73 190.691 234.008 174.127 234.008 153.677C234.111 133.228 250.73 116.664 271.146 116.664ZM271.146 188.85C290.638 188.85 306.437 173.104 306.437 153.677C306.437 134.251 290.638 118.505 271.146 118.505C251.654 118.505 235.855 134.251 235.855 153.677C235.855 173.002 251.756 188.85 271.146 188.85Z" fill="#E1C78C"/>
<path d="M212.669 144.373C225.493 144.373 235.855 154.802 235.855 167.481C235.855 180.261 225.391 190.588 212.669 190.588C199.846 190.588 189.484 180.159 189.484 167.481C189.484 154.7 199.846 144.373 212.669 144.373ZM212.669 188.85C224.467 188.85 234.111 179.239 234.111 167.481C234.111 155.722 224.467 146.111 212.669 146.111C200.872 146.111 191.228 155.722 191.228 167.481C191.228 179.239 200.872 188.85 212.669 188.85Z" fill="#E1C78C"/>
<path d="M204.257 116.664C212.362 116.664 219.03 123.31 219.03 131.387C219.03 139.465 212.362 146.111 204.257 146.111C196.153 146.111 189.484 139.465 189.484 131.387C189.484 123.31 196.05 116.664 204.257 116.664ZM204.257 144.373C211.439 144.373 217.184 138.545 217.184 131.49C217.184 124.332 211.336 118.606 204.257 118.606C197.179 118.606 191.331 124.434 191.331 131.49C191.228 138.545 197.076 144.373 204.257 144.373Z" fill="#E1C78C"/>
<path d="M527.5 247.87C530.14 247.87 532.63 247.51 534.97 246.79C537.37 246.07 539.47 245.021 541.27 243.641C543.13 242.261 544.6 240.611 545.68 238.691C546.76 236.771 547.3 234.611 547.3 232.211C547.3 229.451 546.64 226.841 545.32 224.381C544.06 221.921 542.17 219.941 539.65 218.441C537.19 216.881 534.16 216.101 530.56 216.101C527.14 216.101 524.14 216.82 521.56 218.26C518.98 219.64 516.97 221.561 515.53 224.021C514.15 226.481 513.46 229.361 513.46 232.661H516.25C516.25 229.961 516.85 227.591 518.05 225.551C519.31 223.451 520.99 221.801 523.09 220.601C525.25 219.401 527.74 218.801 530.56 218.801C533.56 218.801 536.08 219.431 538.12 220.691C540.22 221.951 541.78 223.631 542.8 225.73C543.88 227.771 544.42 229.961 544.42 232.301C544.42 234.341 543.91 236.201 542.89 237.881C541.93 239.501 540.61 240.911 538.93 242.111C537.31 243.311 535.51 244.24 533.53 244.9C531.55 245.56 529.54 245.891 527.5 245.891V247.87ZM530.2 280.901C533.98 280.901 537.28 280.211 540.1 278.831C542.92 277.391 545.11 275.381 546.67 272.801C548.29 270.221 549.1 267.28 549.1 263.98C549.1 260.92 548.47 258.311 547.21 256.151C545.95 253.991 544.27 252.22 542.17 250.84C540.13 249.4 537.82 248.321 535.24 247.601C532.72 246.821 530.14 246.43 527.5 246.43V248.501C529.54 248.501 531.64 248.831 533.8 249.491C535.96 250.091 537.97 251.021 539.83 252.281C541.75 253.541 543.28 255.131 544.42 257.051C545.62 258.911 546.22 261.131 546.22 263.711C546.22 266.471 545.56 268.961 544.24 271.181C542.92 273.341 541.06 275.05 538.66 276.31C536.26 277.51 533.44 278.111 530.2 278.111C526.78 278.111 523.84 277.45 521.38 276.13C518.92 274.81 517 273.071 515.62 270.911C514.3 268.691 513.64 266.171 513.64 263.351H510.76C510.76 265.811 511.18 268.121 512.02 270.281C512.92 272.381 514.21 274.241 515.89 275.861C517.63 277.421 519.67 278.651 522.01 279.551C524.41 280.451 527.14 280.901 530.2 280.901Z" fill="#E1C78C"/>
<path d="M556.554 267.401H601.914V264.701H561.504L589.134 224.201V280H592.104V217.001H591.114L556.554 267.401Z" fill="#E1C78C"/>
<path d="M119.8 369H154.75V366.675H125.05L145.975 344.851C147.975 342.851 149.675 340.675 151.075 338.326C152.475 335.926 153.175 333.25 153.175 330.3C153.175 328.7 152.875 327.051 152.275 325.351C151.725 323.651 150.85 322.075 149.65 320.625C148.5 319.175 146.975 318.001 145.075 317.101C143.175 316.151 140.925 315.675 138.325 315.675C135.075 315.675 132.225 316.476 129.775 318.076C127.375 319.626 125.5 321.825 124.15 324.675C122.85 327.475 122.2 330.75 122.2 334.5H124.675C124.675 331.25 125.225 328.4 126.325 325.951C127.425 323.451 129 321.501 131.05 320.101C133.15 318.701 135.575 318 138.325 318C140.475 318 142.325 318.375 143.875 319.125C145.425 319.875 146.7 320.875 147.7 322.125C148.7 323.325 149.425 324.651 149.875 326.101C150.375 327.551 150.625 328.975 150.625 330.375C150.625 332.275 150.325 333.976 149.725 335.476C149.125 336.976 148.325 338.375 147.325 339.675C146.375 340.975 145.275 342.25 144.025 343.5L119.8 369Z" fill="#E1C78C"/>
<path d="M164.52 322.05L176.97 319.05V369H179.37V316.05L164.52 319.5V322.05Z" fill="#E1C78C"/>
<path d="M68.3999 78.4405L78.3599 76.0405V116.001H80.2799V73.6405L68.3999 76.4005V78.4405Z" fill="#E1C78C"/>
<path d="M103.312 94.5805C105.072 94.5805 106.732 94.3405 108.292 93.8605C109.892 93.3805 111.292 92.6805 112.492 91.7605C113.732 90.8405 114.712 89.7405 115.432 88.4605C116.152 87.1805 116.512 85.7405 116.512 84.1405C116.512 82.3005 116.072 80.5605 115.192 78.9205C114.352 77.2805 113.092 75.9605 111.412 74.9605C109.772 73.9205 107.752 73.4005 105.352 73.4005C103.072 73.4005 101.072 73.8805 99.3524 74.8405C97.6324 75.7605 96.2924 77.0405 95.3324 78.6805C94.4124 80.3205 93.9524 82.2405 93.9524 84.4405H95.8124C95.8124 82.6405 96.2124 81.0605 97.0124 79.7005C97.8524 78.3005 98.9724 77.2005 100.372 76.4005C101.812 75.6005 103.472 75.2005 105.352 75.2005C107.352 75.2005 109.032 75.6205 110.392 76.4605C111.792 77.3005 112.832 78.4205 113.512 79.8205C114.232 81.1805 114.592 82.6405 114.592 84.2005C114.592 85.5605 114.252 86.8005 113.572 87.9205C112.932 89.0005 112.052 89.9405 110.932 90.7405C109.852 91.5405 108.652 92.1605 107.332 92.6005C106.012 93.0405 104.672 93.2605 103.312 93.2605V94.5805ZM105.112 116.601C107.632 116.601 109.832 116.141 111.712 115.221C113.592 114.261 115.052 112.921 116.092 111.201C117.172 109.481 117.712 107.521 117.712 105.321C117.712 103.281 117.292 101.541 116.452 100.101C115.612 98.6605 114.492 97.4805 113.092 96.5605C111.732 95.6005 110.192 94.8805 108.472 94.4005C106.792 93.8805 105.072 93.6205 103.312 93.6205V95.0005C104.672 95.0005 106.072 95.2205 107.512 95.6605C108.952 96.0605 110.292 96.6805 111.532 97.5205C112.812 98.3605 113.832 99.4205 114.592 100.701C115.392 101.941 115.792 103.421 115.792 105.141C115.792 106.981 115.352 108.641 114.472 110.121C113.592 111.561 112.352 112.701 110.752 113.541C109.152 114.341 107.272 114.741 105.112 114.741C102.832 114.741 100.872 114.301 99.2324 113.421C97.5924 112.541 96.3124 111.381 95.3924 109.941C94.5124 108.461 94.0724 106.781 94.0724 104.901H92.1524C92.1524 106.541 92.4324 108.081 92.9924 109.521C93.5924 110.921 94.4524 112.161 95.5724 113.241C96.7324 114.281 98.0924 115.101 99.6524 115.701C101.252 116.301 103.072 116.601 105.112 116.601Z" fill="#E1C78C"/>
<path d="M240.2 50.1005C240.2 51.3672 240.433 52.5338 240.9 53.6005C241.4 54.6672 242.067 55.6005 242.9 56.4005C243.733 57.1672 244.683 57.7672 245.75 58.2005C246.817 58.6005 247.933 58.8005 249.1 58.8005C250.267 58.8005 251.383 58.6005 252.45 58.2005C253.55 57.7672 254.533 57.1672 255.4 56.4005C256.267 55.6005 256.933 54.6672 257.4 53.6005C257.867 52.5338 258.1 51.3672 258.1 50.1005C258.1 48.9338 257.883 47.8338 257.45 46.8005C257.017 45.7672 256.383 44.8672 255.55 44.1005C254.75 43.3005 253.8 42.6672 252.7 42.2005C251.633 41.7338 250.433 41.5005 249.1 41.5005C247.4 41.5005 245.883 41.9005 244.55 42.7005C243.217 43.5005 242.15 44.5505 241.35 45.8505C240.583 47.1505 240.2 48.5672 240.2 50.1005ZM241.75 50.2505C241.75 48.9172 242.067 47.7005 242.7 46.6005C243.367 45.5005 244.233 44.6338 245.3 44.0005C246.4 43.3338 247.667 43.0005 249.1 43.0005C250.533 43.0005 251.8 43.3338 252.9 44.0005C254.033 44.6338 254.917 45.5005 255.55 46.6005C256.183 47.7005 256.5 48.9172 256.5 50.2505C256.5 51.6838 256.117 52.9672 255.35 54.1005C254.583 55.2338 253.633 56.1172 252.5 56.7505C251.367 57.3838 250.233 57.7005 249.1 57.7005C248 57.7005 246.883 57.3838 245.75 56.7505C244.617 56.1172 243.667 55.2338 242.9 54.1005C242.133 52.9672 241.75 51.6838 241.75 50.2505ZM239.1 67.7005C239.1 69.0672 239.317 70.3505 239.75 71.5505C240.217 72.7172 240.883 73.7505 241.75 74.6505C242.65 75.5505 243.7 76.2505 244.9 76.7505C246.133 77.2505 247.533 77.5005 249.1 77.5005C250.667 77.5005 252.067 77.2505 253.3 76.7505C254.567 76.2505 255.633 75.5505 256.5 74.6505C257.367 73.7505 258.017 72.7172 258.45 71.5505C258.917 70.3505 259.15 69.0672 259.15 67.7005C259.15 66.2338 258.883 64.9172 258.35 63.7505C257.817 62.5505 257.067 61.5338 256.1 60.7005C255.133 59.8672 254.05 59.2172 252.85 58.7505C251.65 58.2838 250.4 58.0505 249.1 58.0505C247.8 58.0505 246.55 58.2838 245.35 58.7505C244.15 59.2172 243.083 59.8672 242.15 60.7005C241.217 61.5338 240.467 62.5505 239.9 63.7505C239.367 64.9172 239.1 66.2338 239.1 67.7005ZM240.7 67.5005C240.7 65.8672 241.1 64.4338 241.9 63.2005C242.733 61.9672 243.783 61.0005 245.05 60.3005C246.35 59.5672 247.7 59.2005 249.1 59.2005C250.5 59.2005 251.85 59.5672 253.15 60.3005C254.45 61.0005 255.517 61.9672 256.35 63.2005C257.183 64.4338 257.6 65.8672 257.6 67.5005C257.6 69.1672 257.233 70.6505 256.5 71.9505C255.8 73.2172 254.817 74.2172 253.55 74.9505C252.283 75.6505 250.8 76.0005 249.1 76.0005C247.433 76.0005 245.967 75.6505 244.7 74.9505C243.433 74.2172 242.45 73.2172 241.75 71.9505C241.05 70.6505 240.7 69.1672 240.7 67.5005Z" fill="#E1C78C"/>
<path d="M278 158.1C278 156.78 277.73 155.621 277.19 154.621C276.65 153.621 275.92 152.841 275 152.281C274.1 151.721 273.08 151.441 271.94 151.441C270.86 151.441 269.89 151.65 269.03 152.07C268.19 152.47 267.55 152.94 267.11 153.48L269.18 144.901H278.36V144.001H268.46L265.7 155.191C266.28 154.551 266.87 154.02 267.47 153.6C268.07 153.18 268.7 152.871 269.36 152.671C270.04 152.451 270.78 152.341 271.58 152.341C272.58 152.341 273.49 152.581 274.31 153.061C275.13 153.541 275.78 154.22 276.26 155.1C276.74 155.96 276.98 156.96 276.98 158.1C276.98 159.42 276.72 160.551 276.2 161.491C275.7 162.411 275 163.121 274.1 163.621C273.2 164.121 272.18 164.371 271.04 164.371C270.08 164.371 269.23 164.201 268.49 163.861C267.75 163.521 267.11 163.051 266.57 162.451C266.05 161.831 265.63 161.13 265.31 160.35L264.44 160.891C264.84 161.751 265.33 162.521 265.91 163.201C266.49 163.861 267.2 164.38 268.04 164.76C268.9 165.12 269.9 165.301 271.04 165.301C272 165.301 272.9 165.15 273.74 164.85C274.58 164.55 275.32 164.101 275.96 163.501C276.62 162.901 277.12 162.151 277.46 161.251C277.82 160.351 278 159.3 278 158.1Z" fill="#E1C78C"/>
<path d="M212 167.861C212.587 167.861 213.14 167.781 213.66 167.621C214.193 167.461 214.66 167.227 215.06 166.921C215.473 166.614 215.8 166.247 216.04 165.82C216.28 165.394 216.4 164.914 216.4 164.381C216.4 163.767 216.253 163.187 215.96 162.641C215.68 162.094 215.26 161.654 214.7 161.32C214.153 160.974 213.48 160.801 212.68 160.801C211.92 160.801 211.253 160.961 210.68 161.281C210.107 161.587 209.66 162.014 209.34 162.561C209.033 163.107 208.88 163.747 208.88 164.48H209.5C209.5 163.88 209.633 163.354 209.9 162.901C210.18 162.434 210.553 162.067 211.02 161.801C211.5 161.534 212.053 161.401 212.68 161.401C213.347 161.401 213.907 161.54 214.36 161.82C214.827 162.1 215.173 162.474 215.4 162.941C215.64 163.394 215.76 163.881 215.76 164.401C215.76 164.854 215.647 165.267 215.42 165.641C215.207 166.001 214.913 166.314 214.54 166.581C214.18 166.847 213.78 167.054 213.34 167.201C212.9 167.347 212.453 167.421 212 167.421V167.861ZM212.6 175.201C213.44 175.201 214.173 175.047 214.8 174.741C215.427 174.421 215.913 173.974 216.26 173.401C216.62 172.827 216.8 172.174 216.8 171.441C216.8 170.761 216.66 170.181 216.38 169.701C216.1 169.221 215.727 168.827 215.26 168.521C214.807 168.201 214.293 167.961 213.72 167.801C213.16 167.627 212.587 167.54 212 167.54V168.001C212.453 168.001 212.92 168.074 213.4 168.221C213.88 168.354 214.327 168.561 214.74 168.841C215.167 169.121 215.507 169.474 215.76 169.9C216.027 170.314 216.16 170.807 216.16 171.381C216.16 171.994 216.013 172.547 215.72 173.041C215.427 173.521 215.013 173.901 214.48 174.181C213.947 174.447 213.32 174.581 212.6 174.581C211.84 174.581 211.187 174.434 210.64 174.141C210.093 173.847 209.667 173.46 209.36 172.98C209.067 172.487 208.92 171.927 208.92 171.301H208.28C208.28 171.847 208.373 172.36 208.56 172.84C208.76 173.307 209.047 173.721 209.42 174.081C209.807 174.427 210.26 174.701 210.78 174.901C211.313 175.101 211.92 175.201 212.6 175.201Z" fill="#E1C78C"/>
<path d="M201.286 136.001H207.5V135.325H202.781L206.096 131.906C206.443 131.55 206.733 131.156 206.967 130.723C207.21 130.289 207.331 129.826 207.331 129.332C207.331 129.054 207.279 128.768 207.175 128.474C207.071 128.17 206.906 127.889 206.681 127.629C206.464 127.369 206.183 127.161 205.836 127.005C205.498 126.84 205.091 126.758 204.614 126.758C204.025 126.758 203.513 126.896 203.08 127.174C202.655 127.442 202.326 127.824 202.092 128.318C201.867 128.803 201.754 129.371 201.754 130.021H202.469C202.469 129.501 202.556 129.046 202.729 128.656C202.902 128.266 203.149 127.967 203.47 127.759C203.791 127.542 204.172 127.434 204.614 127.434C204.952 127.434 205.242 127.494 205.485 127.616C205.736 127.728 205.94 127.88 206.096 128.07C206.261 128.252 206.382 128.456 206.46 128.682C206.547 128.907 206.59 129.132 206.59 129.358C206.59 129.644 206.542 129.912 206.447 130.164C206.36 130.406 206.239 130.64 206.083 130.866C205.927 131.082 205.745 131.299 205.537 131.516L201.286 136.001Z" fill="#E1C78C"/>
<path d="M225.118 128.214L227.211 127.668V136.001H227.926V126.797L225.118 127.473V128.214Z" fill="#E1C78C"/>
</svg>
