<svg width="192" height="191" viewBox="0 0 192 191" fill="none" xmlns="http://www.w3.org/2000/svg"><path d="M95.716 0c52.731 0 95.614 42.74 95.614 95.294 0 52.555-42.883 95.294-95.614 95.294-52.732 0-95.614-42.739-95.614-95.294S42.984 0 95.716 0zm0 188.85c51.705 0 93.767-41.921 93.767-93.454 0-51.532-42.062-93.453-93.767-93.453-51.706 0-93.768 41.921-93.768 93.453 0 51.533 41.96 93.454 93.768 93.454z" fill="#E1C78C"/><path d="M119.723 71.68l37.462-37.42-.434-.435-37.463 37.42.435.434zm-85.325 85.133l37.452-37.43-.434-.434-37.452 37.43.434.434zM68.4 78.44l9.96-2.4V116h1.92V73.64L68.4 76.4v2.04zm34.912 16.14c1.76 0 3.42-.24 4.98-.72 1.6-.48 3-1.18 4.2-2.1 1.24-.92 2.22-2.02 2.94-3.3.72-1.28 1.08-2.72 1.08-4.32 0-1.84-.44-3.58-1.32-5.22-.84-1.64-2.1-2.96-3.78-3.96-1.64-1.04-3.66-1.56-6.06-1.56-2.28 0-4.28.48-6 1.44-1.72.92-3.06 2.2-4.02 3.84-.92 1.64-1.38 3.56-1.38 5.76h1.86c0-1.8.4-3.38 1.2-4.74.84-1.4 1.96-2.5 3.36-3.3 1.44-.8 3.1-1.2 4.98-1.2 2 0 3.68.42 5.04 1.26 1.4.84 2.44 1.96 3.12 3.36a9.222 9.222 0 011.08 4.38c0 1.36-.34 2.6-1.02 3.72-.64 1.08-1.52 2.02-2.64 2.82-1.08.8-2.28 1.42-3.6 1.86-1.32.44-2.66.66-4.02.66v1.32zm1.8 22.02c2.52 0 4.72-.46 6.6-1.38 1.88-.96 3.34-2.3 4.38-4.02 1.08-1.72 1.62-3.68 1.62-5.88 0-2.04-.42-3.78-1.26-5.22-.84-1.44-1.96-2.62-3.36-3.54-1.36-.96-2.9-1.68-4.62-2.16-1.68-.52-3.4-.78-5.16-.78V95c1.36 0 2.76.22 4.2.66 1.44.4 2.78 1.02 4.02 1.86 1.28.84 2.3 1.9 3.06 3.18.8 1.24 1.2 2.72 1.2 4.44 0 1.84-.44 3.5-1.32 4.98-.88 1.44-2.12 2.58-3.72 3.42-1.6.8-3.48 1.2-5.64 1.2-2.28 0-4.24-.44-5.88-1.32-1.64-.88-2.92-2.04-3.84-3.48-.88-1.48-1.32-3.16-1.32-5.04h-1.92c0 1.64.28 3.18.84 4.62.6 1.4 1.46 2.64 2.58 3.72 1.16 1.04 2.52 1.86 4.08 2.46 1.6.6 3.42.9 5.46.9z" fill="#E1C78C"/></svg>