<svg width="118" height="74" viewBox="0 0 118 74" fill="none" xmlns="http://www.w3.org/2000/svg"><path d="M0 29h46v-1.5H0V29zm35.118-17.787l2.093-.546V19h.715V9.796l-2.808.676v.741z" fill="#E6C783"/><path d="M44 0v74h1.5V0H44zm43.829 41.42c0-1.32-.27-2.479-.807-3.478-.538-1-1.266-1.78-2.182-2.34-.897-.56-1.913-.84-3.049-.84-1.076 0-2.042.21-2.9.63-.836.4-1.474.87-1.912 1.41l2.062-8.577h9.146v-.9h-9.863l-2.75 11.186c.578-.64 1.166-1.17 1.764-1.589a6.61 6.61 0 011.883-.93 7.127 7.127 0 012.211-.33c.997 0 1.903.24 2.72.72.817.48 1.465 1.16 1.943 2.04.478.86.717 1.859.717 2.998 0 1.32-.259 2.45-.777 3.39a5.242 5.242 0 01-2.092 2.128c-.897.5-1.913.75-3.049.75-.956 0-1.803-.17-2.54-.51a5.809 5.809 0 01-1.913-1.41 7.926 7.926 0 01-1.255-2.098l-.867.54a10.1 10.1 0 001.465 2.309 6.169 6.169 0 002.122 1.559c.856.36 1.853.54 2.988.54a7.91 7.91 0 002.69-.45 6.28 6.28 0 002.212-1.35c.658-.6 1.156-1.349 1.495-2.249.358-.9.538-1.949.538-3.149z" fill="#E6C783"/><path d="M81 0c20.34 0 37 16.558 37 37 0 20.34-16.558 37-37 37-20.34 0-37-16.558-37-37 .102-20.442 16.66-37 37-37zm0 72.16c19.42 0 35.16-15.74 35.16-35.16 0-19.42-15.74-35.16-35.16-35.16-19.42 0-35.16 15.74-35.16 35.16 0 19.318 15.842 35.16 35.16 35.16z" fill="#E6C783"/><path d="M90.128 27.996l14.288-14.332-.144-.144-14.288 14.332.144.144zM57.63 60.5l14.29-14.33-.145-.145-14.288 14.332.145.145zm-35.294-9.615c.582 0 1.13-.08 1.647-.244.529-.162.992-.4 1.388-.712a3.53 3.53 0 00.973-1.118c.238-.434.357-.922.357-1.465a3.77 3.77 0 00-.437-1.77 3.26 3.26 0 00-1.25-1.342c-.542-.352-1.21-.528-2.004-.528-.754 0-1.415.162-1.984.488a3.361 3.361 0 00-1.329 1.301c-.304.556-.456 1.207-.456 1.953h.615c0-.61.132-1.146.397-1.607a3.068 3.068 0 011.11-1.118c.477-.272 1.026-.407 1.647-.407.662 0 1.217.142 1.667.427.463.285.807.664 1.032 1.139.238.461.357.956.357 1.485 0 .46-.113.881-.337 1.26a3.115 3.115 0 01-.873.957 4.199 4.199 0 01-1.19.63c-.437.15-.88.224-1.33.224v.447zm.595 7.465c.833 0 1.56-.156 2.182-.468a3.559 3.559 0 001.449-1.362c.357-.584.535-1.248.535-1.994 0-.691-.138-1.281-.416-1.77a3.535 3.535 0 00-1.111-1.2 4.863 4.863 0 00-1.528-.732 5.608 5.608 0 00-1.706-.264v.468c.45 0 .913.074 1.389.224.476.135.919.345 1.329.63.423.285.76.644 1.012 1.078.264.42.397.922.397 1.505a3.3 3.3 0 01-.437 1.688 3.117 3.117 0 01-1.23 1.16c-.529.27-1.15.406-1.865.406-.754 0-1.402-.149-1.944-.447a3.38 3.38 0 01-1.27-1.18c-.291-.501-.436-1.07-.436-1.708h-.635c0 .556.092 1.078.277 1.566.199.474.483.895.854 1.261.383.352.833.63 1.349.834.529.203 1.13.305 1.805.305z" fill="#E6C783"/><path d="M23 27c12.721 0 23 10.606 23 23.5C46 63.498 35.62 74 23 74 10.28 74 0 63.394 0 50.5 0 37.502 10.28 27 23 27zm0 45.232c11.704 0 21.27-9.774 21.27-21.732S34.704 28.768 23 28.768c-11.703 0-21.27 9.774-21.27 21.732S11.297 72.232 23 72.232z" fill="#E6C783"/><path d="M28.583 44.883l8.769-8.982-.072-.073-8.769 8.981.072.074zM8.635 65.263l8.769-8.982-.072-.073-8.769 8.981.072.074zm2.948-46.22h6.1v-.666H13.05l3.254-3.367a5.2 5.2 0 00.855-1.165 2.77 2.77 0 00.357-1.37 2.54 2.54 0 00-.153-.845 2.51 2.51 0 00-.485-.832 2.272 2.272 0 00-.83-.615c-.331-.162-.731-.243-1.2-.243-.578 0-1.08.137-1.505.41-.416.264-.74.64-.97 1.126-.22.478-.331 1.037-.331 1.677h.702c0-.512.085-.96.255-1.344.17-.384.412-.678.727-.883.315-.213.69-.32 1.123-.32.332 0 .617.06.855.179.246.111.446.26.6.448.161.18.28.38.357.602.085.222.127.444.127.666 0 .281-.046.546-.14.793a2.97 2.97 0 01-.357.692 5.943 5.943 0 01-.536.64l-4.173 4.417z" fill="#E6C783"/><path d="M14.5 0C22.455 0 29 6.545 29 14.5S22.455 29 14.5 29 0 22.455 0 14.5 6.445 0 14.5 0zm0 27.288c7.049 0 12.688-5.74 12.688-12.687 0-7.049-5.74-12.688-12.688-12.688S1.813 7.653 1.813 14.601C1.712 21.549 7.45 27.288 14.5 27.288z" fill="#E6C783"/><path d="M17.865 10.647l5.406-5.418-.072-.07-5.405 5.417.071.07zM5.589 22.935l5.404-5.418-.07-.071-5.405 5.418.07.071zM28 0v29h1.5V0H28z" fill="#E6C783"/></svg>